<?xml version="1.0" encoding="utf-8"?>
<!-- Generator: Adobe Illustrator 19.0.0, SVG Export Plug-In . SVG Version: 6.00 Build 0)  -->
<svg version="1.1" id="Layer_1" xmlns="http://www.w3.org/2000/svg" xmlns:xlink="http://www.w3.org/1999/xlink" x="0px" y="0px"
	 viewBox="-255 347 100 100" style="enable-background:new -255 347 100 100;" xml:space="preserve">
<style type="text/css">
	.st0{fill:#BDBEBF;}
</style>
<g>
	<path class="st0" d="M-208.7,358.9l-20.7,22.9h-19.9c-4.3,0-5.7,2.5-5.7,5v19.6c0,2.4,1.4,5.5,5.7,5.5h20l20.7,23.2
		c0.9,0.5,1.9,0.8,2.9,0.8c1,0,1.8-0.2,2.7-0.8c1.8-1,2.7-2.9,2.7-5v-66.6c0-2.1-0.9-4-2.7-5C-204.8,357.6-206.9,357.9-208.7,358.9z
		"/>
	<path class="st0" d="M-182.8,414.3c9.2-9.3,9.2-24.4,0-33.7c-1.5-1.5-3.9-1.5-5.4,0c-1.5,1.5-1.5,3.9,0,5.4
		c6.2,6.3,6.2,16.5,0,22.8c-1.5,1.5-1.5,3.9,0,5.4c0.7,0.7,1.7,1.1,2.7,1.1C-184.5,415.4-183.6,415-182.8,414.3z"/>
	<path class="st0" d="M-160.7,397.4c0-9-3.5-17.5-9.8-23.9c-1.5-1.5-3.9-1.5-5.4,0c-1.5,1.5-1.5,3.9,0,5.4
		c4.9,4.9,7.5,11.5,7.5,18.5c0,7-2.7,13.6-7.5,18.5c-1.5,1.5-1.5,3.9,0,5.4c0.7,0.7,1.7,1.1,2.7,1.1c1,0,2-0.4,2.7-1.1
		C-164.1,414.9-160.7,406.4-160.7,397.4z"/>
</g>
</svg>
