<?xml version="1.0" encoding="utf-8"?>
<!-- Generator: Adobe Illustrator 19.0.0, SVG Export Plug-In . SVG Version: 6.00 Build 0)  -->
<svg version="1.1" id="Layer_1" xmlns="http://www.w3.org/2000/svg" xmlns:xlink="http://www.w3.org/1999/xlink" x="0px" y="0px"
	 viewBox="294 197 1200 400" enable-background="new 294 197 1200 400" xml:space="preserve">
<rect x="294" y="197" fill="#FFFFFF" width="1200" height="400"/>
<g>
	<text transform="matrix(1 0 0 1 723.1411 396.4216)" fill="#7E7F80" font-family="'SourceSansPro-Regular'" font-size="28px">vanessified</text>
	<text transform="matrix(1 0 0 1 1037.1013 270.9216)" fill="#7E7F80" font-family="'SourceSansPro-Regular'" font-size="28px">vanesssified</text>
	<text transform="matrix(1 0 0 1 1037.1013 537.2751)" fill="#7E7F80" font-family="'SourceSansPro-Regular'" font-size="28px">vanessifieddd</text>
	<text transform="matrix(1 0 0 1 1266.8494 396.4216)" fill="#7E7F80" font-family="'SourceSansPro-Regular'" font-size="28px">vnessified</text>
	<text transform="matrix(1 0 0 1 371.0898 338.4216)" fill="#7E7F80" font-family="'SourceSansPro-Regular'" font-size="28px">Vanessa</text>
	<text transform="matrix(1 0 0 1 413.0339 454.4216)" fill="#7E7F80" font-family="'SourceSansPro-Regular'" font-size="28px">-fied</text>
	<g>
		<rect x="371.1" y="266.8" fill="#8DC0BB" fill-opacity="0.3" width="91" height="33"/>
		<text transform="matrix(1 0 0 1 379.09 289.7552)" fill="#8DC0BB" font-family="'SourceSansPro-Regular'" font-size="20px">ENGLISH</text>
	</g>
	<g>
		<rect x="749.1" y="324.4" fill="#8DC0BB" fill-opacity="0.3" width="74" height="33"/>
		<text transform="matrix(1 0 0 1 757.4606 347.4019)" fill="#8DC0BB" font-family="'SourceSansPro-Regular'" font-size="20px">BLEND</text>
	</g>
	<g>
		<rect x="1233.9" y="324.4" fill="#8DC0BB" fill-opacity="0.3" width="183" height="33"/>
		<text transform="matrix(1 0 0 1 1242.7706 347.4019)" fill="#8DC0BB" font-family="'SourceSansPro-Regular'" font-size="20px">ENGLISH INTERNET</text>
	</g>
	<g>
		<rect x="371.1" y="379.8" fill="#8DC0BB" fill-opacity="0.3" width="91" height="33"/>
		<text transform="matrix(1 0 0 1 381.8705 402.7552)" fill="#8DC0BB" font-family="'SourceSansPro-Regular'" font-size="20px">FRENCH</text>
	</g>
	<g>
		<g>
			<polyline fill="none" stroke="#8DC0BB" stroke-linecap="round" stroke-linejoin="round" points="472.6,446.3 595.7,446.3 
				595.7,333.3 472.6,333.3 			"/>
			<g>
				<rect x="472.1" y="443" fill="#8DC0BB" width="1" height="6.5"/>
			</g>
			<g>
				<rect x="472.1" y="330" fill="#8DC0BB" width="1" height="6.5"/>
			</g>
		</g>
	</g>
	<g>
		<g>
			<polyline fill="none" stroke="#8DC0BB" stroke-linecap="round" stroke-linejoin="round" points="1031.9,263.3 982.1,263.3 
				982.1,530.3 1031.9,530.3 			"/>
			<g>
				<path fill="#8DC0BB" d="M1025.1,258.5c-0.1,0.2-0.1,0.5,0.2,0.7l6.5,4.1l-6.5,4.1c-0.2,0.1-0.3,0.5-0.2,0.7s0.5,0.3,0.7,0.2
					l7.1-4.5c0.1-0.1,0.2-0.3,0.2-0.4s-0.1-0.3-0.2-0.4l-7.1-4.5c-0.1-0.1-0.2-0.1-0.3-0.1C1025.3,258.2,1025.1,258.3,1025.1,258.5z
					"/>
			</g>
			<g>
				<path fill="#8DC0BB" d="M1025.1,535.1c-0.1-0.2-0.1-0.5,0.2-0.7l6.5-4.1l-6.5-4.1c-0.2-0.1-0.3-0.5-0.2-0.7s0.5-0.3,0.7-0.2
					l7.1,4.5c0.1,0.1,0.2,0.3,0.2,0.4s-0.1,0.3-0.2,0.4l-7.1,4.5c-0.1,0.1-0.2,0.1-0.3,0.1C1025.3,535.3,1025.1,535.2,1025.1,535.1z
					"/>
			</g>
		</g>
	</g>
	<g>
		<g>
			<line fill="none" stroke="#8DC0BB" stroke-miterlimit="10" x1="595.7" y1="389.8" x2="712.9" y2="389.8"/>
			<g>
				<path fill="#8DC0BB" d="M706.1,394.6c-0.1-0.2-0.1-0.5,0.2-0.7l6.5-4.1l-6.5-4.1c-0.2-0.1-0.3-0.5-0.2-0.7s0.5-0.3,0.7-0.2
					l7.1,4.5c0.1,0.1,0.2,0.3,0.2,0.4s-0.1,0.3-0.2,0.4l-7.1,4.5c-0.1,0.1-0.2,0.1-0.3,0.1C706.3,394.8,706.1,394.7,706.1,394.6z"/>
			</g>
		</g>
	</g>
	<g>
		<g>
			<line fill="none" stroke="#8DC0BB" stroke-miterlimit="10" x1="861.4" y1="389.8" x2="1257.6" y2="389.8"/>
			<g>
				<path fill="#8DC0BB" d="M1250.7,394.6c-0.1-0.2-0.1-0.5,0.2-0.7l6.5-4.1l-6.5-4.1c-0.2-0.1-0.3-0.5-0.2-0.7
					c0.1-0.2,0.5-0.3,0.7-0.2l7.1,4.5c0.1,0.1,0.2,0.3,0.2,0.4s-0.1,0.3-0.2,0.4l-7.1,4.5c-0.1,0.1-0.2,0.1-0.3,0.1
					C1251,394.8,1250.8,394.7,1250.7,394.6z"/>
			</g>
		</g>
	</g>
	<text transform="matrix(1 0 0 1 1072.0665 294.7353)" fill="#8DC0BB" font-family="'SourceSansPro-It'" font-size="20px">obsolete</text>
	<text transform="matrix(1 0 0 1 1081.7399 560.0686)" fill="#8DC0BB" font-family="'SourceSansPro-It'" font-size="20px">obsolete</text>
</g>
</svg>
