<?xml version="1.0" encoding="utf-8"?>
<!-- Generator: Adobe Illustrator 19.0.0, SVG Export Plug-In . SVG Version: 6.00 Build 0)  -->
<svg version="1.1" id="Layer_1" xmlns="http://www.w3.org/2000/svg" xmlns:xlink="http://www.w3.org/1999/xlink" x="0px" y="0px"
	 viewBox="294 197 1200 400" enable-background="new 294 197 1200 400" xml:space="preserve">
<g>
	<rect x="294" y="197" fill="#FFFFFF" width="1200" height="400"/>
	<g opacity="0.5">
		<path fill="#7E7F80" d="M1493,198v398H295V198H1493 M1494,197H294v400h1200V197L1494,197z"/>
	</g>
</g>
<g id="XMLID_2_">
	
		<text id="XMLID_16_" transform="matrix(1 0 0 1 338.7739 565.7516)" fill="#7E7F80" font-family="'SourceSansPro-Regular'" font-size="28px">1995</text>
	
		<text id="XMLID_21_" transform="matrix(1 0 0 1 602.3481 565.7516)" fill="#7E7F80" font-family="'SourceSansPro-Regular'" font-size="28px">2000</text>
	
		<text id="XMLID_22_" transform="matrix(1 0 0 1 865.9224 565.7516)" fill="#7E7F80" font-family="'SourceSansPro-Regular'" font-size="28px">2005</text>
	
		<text id="XMLID_20_" transform="matrix(1 0 0 1 1393.0703 565.7516)" fill="#7E7F80" font-family="'SourceSansPro-Regular'" font-size="28px">2015</text>
	
		<text id="XMLID_23_" transform="matrix(1 0 0 1 1129.4962 565.7516)" fill="#7E7F80" font-family="'SourceSansPro-Regular'" font-size="28px">2010</text>
	
		<path id="XMLID_17_" fill="none" stroke="#8DC0BB" stroke-width="4" stroke-linecap="round" stroke-linejoin="round" stroke-miterlimit="10" d="
		M1447.4,231.2c-14.9,17.7-21.3,22-32.2,31.4c-10.9,9.4-18.9,21.1-28.3,31.7c-18.2,20.7-41.2,37.3-64.6,53.1
		c-9.7,6.6-19.5,13-29.5,19.2c-11.8,7.4-23.8,14.4-35.4,22c-19,12.3-37,26-53.9,40.7c-8.3,7.3-16.4,15-22.7,23.8
		c-8,11.1-13,23.7-19.3,35.6c-8.4,15.8-20.9,35.5-37.3,35.5c-12.9,0-126.3,0-126.3,0"/>
	<path id="XMLID_19_" opacity="0.3" fill="#8DC0BB" enable-background="new    " d="M1124.9,526.3c0,0,16.3-2.1,36.7-37.6
		c6.7-11.7,11.3-24.6,19.3-35.6c6.3-8.8,14.4-16.5,22.7-23.8c16.8-14.8,34.8-28.4,53.9-40.7c11.6-7.5,23.6-14.6,35.4-22
		c10-6.2,19.8-12.7,29.5-19.2c23.3-15.8,46.4-32.4,64.6-53.1c9.4-10.6,17.4-22.3,28.3-31.7c10.9-9.4,25.1-21.9,33.9-30.7v294.5
		L1124.9,526.3L1124.9,526.3z"/>
	<line id="XMLID_15_" fill="none" stroke="#7E7F80" stroke-miterlimit="10" x1="1449.2" y1="526.2" x2="341.9" y2="526.2"/>
</g>
</svg>
