<?xml version="1.0" encoding="utf-8"?>
<!-- Generator: Adobe Illustrator 19.0.0, SVG Export Plug-In . SVG Version: 6.00 Build 0)  -->
<svg version="1.1" id="Layer_1" xmlns="http://www.w3.org/2000/svg" xmlns:xlink="http://www.w3.org/1999/xlink" x="0px" y="0px"
	 viewBox="294 197 1200 400" enable-background="new 294 197 1200 400" xml:space="preserve">
<g>
	<rect x="294" y="197" fill="#FFFFFF" width="1200" height="400"/>
	<g opacity="0.5">
		<path fill="#7E7F80" d="M1493,198v398H295V198H1493 M1494,197H294v400h1200V197L1494,197z"/>
	</g>
</g>
<g enable-background="new    ">
	<path fill="#7E7F80" d="M341.3,552.9v-1.8c1.7-0.2,2.8-0.4,3.5-0.8c0.7-0.4,1.1-1.3,1.5-2.7h1.8v18.1h-2.4v-12.9H341.3z"/>
	<path fill="#7E7F80" d="M356.7,561.3c0.1,1.3,0.6,2.1,1.5,2.6c0.5,0.3,1,0.4,1.6,0.4c1.1,0,2-0.5,2.8-1.4c0.8-0.9,1.3-2.8,1.6-5.5
		c-0.5,0.8-1.1,1.4-1.9,1.7c-0.7,0.3-1.6,0.5-2.4,0.5c-1.8,0-3.1-0.5-4.2-1.6s-1.5-2.5-1.5-4.2c0-1.6,0.5-3.1,1.5-4.3
		s2.5-1.9,4.5-1.9c2.6,0,4.5,1.2,5.5,3.6c0.6,1.3,0.8,3,0.8,4.9c0,2.2-0.3,4.2-1,5.9c-1.1,2.9-3,4.3-5.6,4.3c-1.8,0-3.1-0.5-4-1.4
		s-1.4-2.1-1.4-3.5H356.7z M362.6,556.7c0.7-0.6,1.1-1.6,1.1-3.1c0-1.3-0.3-2.3-1-3s-1.5-1-2.6-1c-1.1,0-2,0.4-2.7,1.1
		c-0.7,0.7-1,1.7-1,3c0,1.2,0.3,2.1,0.9,2.8c0.6,0.7,1.5,1,2.8,1C361.1,557.6,361.9,557.3,362.6,556.7z"/>
	<path fill="#7E7F80" d="M371.1,561.3c0.1,1.3,0.6,2.1,1.5,2.6c0.5,0.3,1,0.4,1.6,0.4c1.1,0,2-0.5,2.8-1.4c0.8-0.9,1.3-2.8,1.6-5.5
		c-0.5,0.8-1.1,1.4-1.9,1.7c-0.7,0.3-1.6,0.5-2.4,0.5c-1.8,0-3.1-0.5-4.2-1.6s-1.5-2.5-1.5-4.2c0-1.6,0.5-3.1,1.5-4.3
		s2.5-1.9,4.5-1.9c2.6,0,4.5,1.2,5.5,3.6c0.6,1.3,0.8,3,0.8,4.9c0,2.2-0.3,4.2-1,5.9c-1.1,2.9-3,4.3-5.6,4.3c-1.8,0-3.1-0.5-4-1.4
		s-1.4-2.1-1.4-3.5H371.1z M377.1,556.7c0.7-0.6,1.1-1.6,1.1-3.1c0-1.3-0.3-2.3-1-3s-1.5-1-2.6-1c-1.1,0-2,0.4-2.7,1.1
		c-0.7,0.7-1,1.7-1,3c0,1.2,0.3,2.1,0.9,2.8c0.6,0.7,1.5,1,2.8,1C375.5,557.6,376.3,557.3,377.1,556.7z"/>
	<path fill="#7E7F80" d="M385.4,561.1c0.2,1.3,0.8,2.2,1.8,2.7c0.5,0.3,1.2,0.4,1.9,0.4c1.4,0,2.4-0.4,3-1.3s1-1.8,1-2.9
		c0-1.3-0.4-2.3-1.2-2.9s-1.7-1-2.8-1c-0.8,0-1.5,0.2-2,0.5s-1,0.7-1.4,1.3l-2-0.1l1.4-9.8h9.4v2.2h-7.7l-0.8,5.1
		c0.4-0.3,0.8-0.6,1.2-0.7c0.7-0.3,1.5-0.4,2.3-0.4c1.7,0,3.1,0.5,4.2,1.6s1.7,2.4,1.7,4.1c0,1.7-0.5,3.2-1.6,4.5s-2.8,2-5.1,2
		c-1.5,0-2.8-0.4-3.9-1.2c-1.1-0.8-1.8-2.1-1.9-3.8H385.4z"/>
</g>
<g enable-background="new    ">
	<path fill="#7E7F80" d="M604.1,561.7c0.6-1.2,1.7-2.2,3.3-3.2l2.4-1.4c1.1-0.6,1.9-1.2,2.3-1.6c0.7-0.7,1-1.5,1-2.4
		c0-1.1-0.3-1.9-1-2.5c-0.6-0.6-1.5-0.9-2.5-0.9c-1.6,0-2.6,0.6-3.2,1.8c-0.3,0.6-0.5,1.5-0.5,2.6h-2.3c0-1.6,0.3-2.9,0.9-3.9
		c1-1.8,2.7-2.6,5.2-2.6c2.1,0,3.6,0.6,4.6,1.7s1.4,2.4,1.4,3.8c0,1.5-0.5,2.7-1.5,3.7c-0.6,0.6-1.7,1.3-3.2,2.2l-1.7,1
		c-0.8,0.5-1.5,0.9-2,1.3c-0.8,0.7-1.4,1.6-1.6,2.5h9.9v2.2h-12.5C603.2,564.2,603.6,562.8,604.1,561.7z"/>
	<path fill="#7E7F80" d="M628.9,550.5c0.8,1.5,1.2,3.6,1.2,6.2c0,2.5-0.4,4.5-1.1,6.1c-1.1,2.3-2.8,3.5-5.2,3.5
		c-2.2,0-3.8-0.9-4.9-2.8c-0.9-1.6-1.3-3.7-1.3-6.4c0-2.1,0.3-3.8,0.8-5.3c1-2.8,2.8-4.1,5.4-4.1
		C626.2,547.6,627.9,548.5,628.9,550.5z M626.6,562.6c0.7-1,1.1-3,1.1-5.9c0-2.1-0.3-3.8-0.8-5.1c-0.5-1.3-1.5-2-3-2
		c-1.3,0-2.3,0.6-3,1.9c-0.6,1.3-0.9,3.1-0.9,5.6c0,1.9,0.2,3.3,0.6,4.5c0.6,1.7,1.7,2.6,3.1,2.6C625,564.2,625.9,563.6,626.6,562.6
		z"/>
	<path fill="#7E7F80" d="M643.4,550.5c0.8,1.5,1.2,3.6,1.2,6.2c0,2.5-0.4,4.5-1.1,6.1c-1.1,2.3-2.8,3.5-5.2,3.5
		c-2.2,0-3.8-0.9-4.9-2.8c-0.9-1.6-1.3-3.7-1.3-6.4c0-2.1,0.3-3.8,0.8-5.3c1-2.8,2.8-4.1,5.4-4.1
		C640.7,547.6,642.4,548.5,643.4,550.5z M641.1,562.6c0.7-1,1.1-3,1.1-5.9c0-2.1-0.3-3.8-0.8-5.1c-0.5-1.3-1.5-2-3-2
		c-1.3,0-2.3,0.6-3,1.9c-0.6,1.3-0.9,3.1-0.9,5.6c0,1.9,0.2,3.3,0.6,4.5c0.6,1.7,1.7,2.6,3.1,2.6
		C639.5,564.2,640.4,563.6,641.1,562.6z"/>
	<path fill="#7E7F80" d="M657.9,550.5c0.8,1.5,1.2,3.6,1.2,6.2c0,2.5-0.4,4.5-1.1,6.1c-1.1,2.3-2.8,3.5-5.2,3.5
		c-2.2,0-3.8-0.9-4.9-2.8c-0.9-1.6-1.3-3.7-1.3-6.4c0-2.1,0.3-3.8,0.8-5.3c1-2.8,2.8-4.1,5.4-4.1
		C655.1,547.6,656.8,548.5,657.9,550.5z M655.6,562.6c0.7-1,1.1-3,1.1-5.9c0-2.1-0.3-3.8-0.8-5.1c-0.5-1.3-1.5-2-3-2
		c-1.3,0-2.3,0.6-3,1.9c-0.6,1.3-0.9,3.1-0.9,5.6c0,1.9,0.2,3.3,0.6,4.5c0.6,1.7,1.7,2.6,3.1,2.6
		C653.9,564.2,654.9,563.6,655.6,562.6z"/>
</g>
<g enable-background="new    ">
	<path fill="#7E7F80" d="M867.7,561.7c0.6-1.2,1.7-2.2,3.3-3.2l2.4-1.4c1.1-0.6,1.9-1.2,2.3-1.6c0.7-0.7,1-1.5,1-2.4
		c0-1.1-0.3-1.9-1-2.5c-0.6-0.6-1.5-0.9-2.5-0.9c-1.6,0-2.6,0.6-3.2,1.8c-0.3,0.6-0.5,1.5-0.5,2.6h-2.3c0-1.6,0.3-2.9,0.9-3.9
		c1-1.8,2.7-2.6,5.2-2.6c2.1,0,3.6,0.6,4.6,1.7s1.4,2.4,1.4,3.8c0,1.5-0.5,2.7-1.5,3.7c-0.6,0.6-1.7,1.3-3.2,2.2l-1.7,1
		c-0.8,0.5-1.5,0.9-2,1.3c-0.8,0.7-1.4,1.6-1.6,2.5h9.9v2.2h-12.5C866.8,564.2,867.1,562.8,867.7,561.7z"/>
	<path fill="#7E7F80" d="M892.5,550.5c0.8,1.5,1.2,3.6,1.2,6.2c0,2.5-0.4,4.5-1.1,6.1c-1.1,2.3-2.8,3.5-5.2,3.5
		c-2.2,0-3.8-0.9-4.9-2.8c-0.9-1.6-1.3-3.7-1.3-6.4c0-2.1,0.3-3.8,0.8-5.3c1-2.8,2.8-4.1,5.4-4.1
		C889.8,547.6,891.5,548.5,892.5,550.5z M890.2,562.6c0.7-1,1.1-3,1.1-5.9c0-2.1-0.3-3.8-0.8-5.1c-0.5-1.3-1.5-2-3-2
		c-1.3,0-2.3,0.6-3,1.9c-0.6,1.3-0.9,3.1-0.9,5.6c0,1.9,0.2,3.3,0.6,4.5c0.6,1.7,1.7,2.6,3.1,2.6
		C888.6,564.2,889.5,563.6,890.2,562.6z"/>
	<path fill="#7E7F80" d="M907,550.5c0.8,1.5,1.2,3.6,1.2,6.2c0,2.5-0.4,4.5-1.1,6.1c-1.1,2.3-2.8,3.5-5.2,3.5
		c-2.2,0-3.8-0.9-4.9-2.8c-0.9-1.6-1.3-3.7-1.3-6.4c0-2.1,0.3-3.8,0.8-5.3c1-2.8,2.8-4.1,5.4-4.1C904.2,547.6,905.9,548.5,907,550.5
		z M904.7,562.6c0.7-1,1.1-3,1.1-5.9c0-2.1-0.3-3.8-0.8-5.1c-0.5-1.3-1.5-2-3-2c-1.3,0-2.3,0.6-3,1.9c-0.6,1.3-0.9,3.1-0.9,5.6
		c0,1.9,0.2,3.3,0.6,4.5c0.6,1.7,1.7,2.6,3.1,2.6C903,564.2,904,563.6,904.7,562.6z"/>
	<path fill="#7E7F80" d="M912.5,561.1c0.2,1.3,0.8,2.2,1.8,2.7c0.5,0.3,1.2,0.4,1.9,0.4c1.4,0,2.4-0.4,3-1.3c0.7-0.9,1-1.8,1-2.9
		c0-1.3-0.4-2.3-1.2-2.9s-1.7-1-2.8-1c-0.8,0-1.5,0.2-2,0.5c-0.6,0.3-1,0.7-1.4,1.3l-2-0.1l1.4-9.8h9.4v2.2h-7.7l-0.8,5.1
		c0.4-0.3,0.8-0.6,1.2-0.7c0.7-0.3,1.5-0.4,2.3-0.4c1.7,0,3.1,0.5,4.2,1.6c1.2,1.1,1.7,2.4,1.7,4.1c0,1.7-0.5,3.2-1.6,4.5
		c-1.1,1.3-2.8,2-5.1,2c-1.5,0-2.8-0.4-3.9-1.2c-1.1-0.8-1.8-2.1-1.9-3.8H912.5z"/>
</g>
<g enable-background="new    ">
	<path fill="#7E7F80" d="M1394.9,561.7c0.6-1.2,1.7-2.2,3.3-3.2l2.4-1.4c1.1-0.6,1.9-1.2,2.3-1.6c0.7-0.7,1-1.5,1-2.4
		c0-1.1-0.3-1.9-1-2.5c-0.6-0.6-1.5-0.9-2.5-0.9c-1.6,0-2.6,0.6-3.2,1.8c-0.3,0.6-0.5,1.5-0.5,2.6h-2.3c0-1.6,0.3-2.9,0.9-3.9
		c1-1.8,2.7-2.6,5.2-2.6c2.1,0,3.6,0.6,4.6,1.7c1,1.1,1.4,2.4,1.4,3.8c0,1.5-0.5,2.7-1.5,3.7c-0.6,0.6-1.7,1.3-3.2,2.2l-1.7,1
		c-0.8,0.5-1.5,0.9-2,1.3c-0.8,0.7-1.4,1.6-1.6,2.5h9.9v2.2h-12.5C1394,564.2,1394.3,562.8,1394.9,561.7z"/>
	<path fill="#7E7F80" d="M1419.7,550.5c0.8,1.5,1.2,3.6,1.2,6.2c0,2.5-0.4,4.5-1.1,6.1c-1.1,2.3-2.8,3.5-5.2,3.5
		c-2.2,0-3.8-0.9-4.9-2.8c-0.9-1.6-1.3-3.7-1.3-6.4c0-2.1,0.3-3.8,0.8-5.3c1-2.8,2.8-4.1,5.4-4.1
		C1416.9,547.6,1418.6,548.5,1419.7,550.5z M1417.4,562.6c0.7-1,1.1-3,1.1-5.9c0-2.1-0.3-3.8-0.8-5.1c-0.5-1.3-1.5-2-3-2
		c-1.3,0-2.3,0.6-3,1.9c-0.6,1.3-0.9,3.1-0.9,5.6c0,1.9,0.2,3.3,0.6,4.5c0.6,1.7,1.7,2.6,3.1,2.6
		C1415.7,564.2,1416.7,563.6,1417.4,562.6z"/>
	<path fill="#7E7F80" d="M1424.5,552.9v-1.8c1.7-0.2,2.8-0.4,3.5-0.8c0.7-0.4,1.1-1.3,1.5-2.7h1.8v18.1h-2.4v-12.9H1424.5z"/>
	<path fill="#7E7F80" d="M1439.7,561.1c0.2,1.3,0.8,2.2,1.8,2.7c0.5,0.3,1.2,0.4,1.9,0.4c1.4,0,2.4-0.4,3-1.3s1-1.8,1-2.9
		c0-1.3-0.4-2.3-1.2-2.9c-0.8-0.7-1.7-1-2.8-1c-0.8,0-1.5,0.2-2,0.5c-0.6,0.3-1,0.7-1.4,1.3l-2-0.1l1.4-9.8h9.4v2.2h-7.7l-0.8,5.1
		c0.4-0.3,0.8-0.6,1.2-0.7c0.7-0.3,1.5-0.4,2.3-0.4c1.7,0,3.1,0.5,4.2,1.6s1.7,2.4,1.7,4.1c0,1.7-0.5,3.2-1.6,4.5
		c-1.1,1.3-2.8,2-5.1,2c-1.5,0-2.8-0.4-3.9-1.2c-1.1-0.8-1.8-2.1-1.9-3.8H1439.7z"/>
</g>
<g enable-background="new    ">
	<path fill="#7E7F80" d="M1131.3,561.7c0.6-1.2,1.7-2.2,3.3-3.2l2.4-1.4c1.1-0.6,1.9-1.2,2.3-1.6c0.7-0.7,1-1.5,1-2.4
		c0-1.1-0.3-1.9-1-2.5c-0.6-0.6-1.5-0.9-2.5-0.9c-1.6,0-2.6,0.6-3.2,1.8c-0.3,0.6-0.5,1.5-0.5,2.6h-2.3c0-1.6,0.3-2.9,0.9-3.9
		c1-1.8,2.7-2.6,5.2-2.6c2.1,0,3.6,0.6,4.6,1.7c1,1.1,1.4,2.4,1.4,3.8c0,1.5-0.5,2.7-1.5,3.7c-0.6,0.6-1.7,1.3-3.2,2.2l-1.7,1
		c-0.8,0.5-1.5,0.9-2,1.3c-0.8,0.7-1.4,1.6-1.6,2.5h9.9v2.2h-12.5C1130.4,564.2,1130.7,562.8,1131.3,561.7z"/>
	<path fill="#7E7F80" d="M1156.1,550.5c0.8,1.5,1.2,3.6,1.2,6.2c0,2.5-0.4,4.5-1.1,6.1c-1.1,2.3-2.8,3.5-5.2,3.5
		c-2.2,0-3.8-0.9-4.9-2.8c-0.9-1.6-1.3-3.7-1.3-6.4c0-2.1,0.3-3.8,0.8-5.3c1-2.8,2.8-4.1,5.4-4.1
		C1153.3,547.6,1155,548.5,1156.1,550.5z M1153.8,562.6c0.7-1,1.1-3,1.1-5.9c0-2.1-0.3-3.8-0.8-5.1c-0.5-1.3-1.5-2-3-2
		c-1.3,0-2.3,0.6-3,1.9c-0.6,1.3-0.9,3.1-0.9,5.6c0,1.9,0.2,3.3,0.6,4.5c0.6,1.7,1.7,2.6,3.1,2.6
		C1152.1,564.2,1153.1,563.6,1153.8,562.6z"/>
	<path fill="#7E7F80" d="M1160.9,552.9v-1.8c1.7-0.2,2.8-0.4,3.5-0.8c0.7-0.4,1.1-1.3,1.5-2.7h1.8v18.1h-2.4v-12.9H1160.9z"/>
	<path fill="#7E7F80" d="M1185,550.5c0.8,1.5,1.2,3.6,1.2,6.2c0,2.5-0.4,4.5-1.1,6.1c-1.1,2.3-2.8,3.5-5.2,3.5
		c-2.2,0-3.8-0.9-4.9-2.8c-0.9-1.6-1.3-3.7-1.3-6.4c0-2.1,0.3-3.8,0.8-5.3c1-2.8,2.8-4.1,5.4-4.1
		C1182.3,547.6,1184,548.5,1185,550.5z M1182.7,562.6c0.7-1,1.1-3,1.1-5.9c0-2.1-0.3-3.8-0.8-5.1c-0.5-1.3-1.5-2-3-2
		c-1.3,0-2.3,0.6-3,1.9c-0.6,1.3-0.9,3.1-0.9,5.6c0,1.9,0.2,3.3,0.6,4.5c0.6,1.7,1.7,2.6,3.1,2.6
		C1181.1,564.2,1182,563.6,1182.7,562.6z"/>
</g>
<path fill="#236EB6" d="M1124.2,526.2H997.9c-1.1,0-2-0.9-2-2s0.9-2,2-2h126.3c15.4,0,27.7-19.7,35.5-34.4c1.9-3.6,3.7-7.4,5.5-11
	c4.1-8.4,8.3-17,13.9-24.9c6.6-9.3,15.4-17.4,23-24.1c17.4-15.1,35.6-28.9,54.1-40.9c7.2-4.7,14.6-9.3,21.9-13.7
	c4.5-2.7,9.1-5.5,13.6-8.3c9.7-6,19.3-12.3,29.4-19.2c21.2-14.3,45.4-31.4,64.2-52.8c3-3.4,6-7,8.8-10.5c6-7.3,12.2-14.9,19.7-21.4
	c1.9-1.6,3.7-3.1,5.4-4.6c8.1-6.8,14.4-12.1,26.6-26.6c0.7-0.8,2-1,2.8-0.2s1,2,0.2,2.8c-12.4,14.8-18.9,20.2-27.1,27.1
	c-1.7,1.4-3.4,2.9-5.3,4.5c-7.2,6.2-13.3,13.7-19.2,20.9c-2.9,3.5-5.8,7.1-8.9,10.6c-19.1,21.7-43.5,39-65,53.4
	c-10.2,6.9-19.8,13.2-29.6,19.2c-4.5,2.8-9.1,5.6-13.6,8.4c-7.2,4.4-14.6,8.9-21.8,13.6c-18.4,11.9-36.4,25.5-53.7,40.5
	c-7.5,6.6-16,14.5-22.4,23.5c-5.5,7.6-9.6,16.1-13.6,24.3c-1.8,3.7-3.6,7.4-5.6,11.1C1145.8,522.4,1132.6,526.2,1124.2,526.2z"/>
<path id="XMLID_19_" opacity="0.3" fill="#236EB6" enable-background="new    " d="M1124.9,526.3c0,0,16.3-2.1,36.7-37.6
	c6.7-11.7,11.3-24.6,19.3-35.6c6.3-8.8,14.4-16.5,22.7-23.8c16.8-14.8,34.8-28.4,53.9-40.7c11.6-7.5,23.6-14.6,35.4-22
	c10-6.2,19.8-12.7,29.5-19.2c23.3-15.8,46.4-32.4,64.6-53.1c9.4-10.6,17.4-22.3,28.3-31.7c10.9-9.4,25.1-21.9,33.9-30.7v294.5
	L1124.9,526.3L1124.9,526.3z"/>
<rect x="341.9" y="525.7" fill="#7E7F80" width="1107.3" height="1"/>
</svg>
