<?xml version="1.0" encoding="utf-8"?>
<!-- Generator: Adobe Illustrator 19.0.0, SVG Export Plug-In . SVG Version: 6.00 Build 0)  -->
<svg version="1.1" id="Layer_1" xmlns="http://www.w3.org/2000/svg" xmlns:xlink="http://www.w3.org/1999/xlink" x="0px" y="0px"
	 viewBox="294 197 1200 400" enable-background="new 294 197 1200 400" xml:space="preserve">
<rect x="294" y="197" fill="#FFFFFF" width="1200" height="400"/>
<g enable-background="new    ">
	<path fill="#7E7F80" d="M730.7,383.9l3.4,10.2l3.5-10.2h2.3l-4.7,12.6h-2.2l-4.6-12.6H730.7z"/>
	<path fill="#7E7F80" d="M748.4,388.8c0.5-0.1,0.8-0.3,1-0.6c0.1-0.2,0.1-0.5,0.1-0.8c0-0.7-0.3-1.2-0.8-1.6s-1.2-0.5-2.2-0.5
		c-1.1,0-1.9,0.3-2.3,0.9c-0.3,0.3-0.4,0.8-0.5,1.5h-2c0-1.6,0.5-2.6,1.5-3.2c1-0.6,2.1-0.9,3.4-0.9c1.5,0,2.7,0.3,3.6,0.8
		c0.9,0.6,1.4,1.4,1.4,2.6v7.2c0,0.2,0,0.4,0.1,0.5c0.1,0.1,0.3,0.2,0.6,0.2c0.1,0,0.2,0,0.3,0s0.2,0,0.4-0.1v1.6
		c-0.3,0.1-0.6,0.2-0.8,0.2s-0.4,0-0.7,0c-0.7,0-1.3-0.3-1.6-0.8c-0.2-0.3-0.3-0.7-0.4-1.2c-0.4,0.6-1,1.1-1.9,1.5s-1.7,0.6-2.7,0.6
		c-1.2,0-2.1-0.4-2.9-1.1s-1.1-1.6-1.1-2.7c0-1.2,0.4-2.1,1.1-2.7s1.7-1,2.9-1.2L748.4,388.8z M744,394.5c0.4,0.4,1,0.5,1.6,0.5
		c0.7,0,1.5-0.2,2.2-0.5c1.2-0.6,1.8-1.5,1.8-2.8V390c-0.3,0.2-0.6,0.3-1,0.4c-0.4,0.1-0.8,0.2-1.2,0.2l-1.3,0.2
		c-0.8,0.1-1.3,0.3-1.7,0.5c-0.7,0.4-1,1-1,1.8C743.3,393.7,743.5,394.2,744,394.5z"/>
	<path fill="#7E7F80" d="M755,383.9h2v1.8c0.6-0.7,1.2-1.3,1.9-1.6s1.4-0.5,2.2-0.5c1.8,0,3,0.6,3.6,1.9c0.3,0.7,0.5,1.7,0.5,2.9
		v8.1h-2.1v-7.9c0-0.8-0.1-1.4-0.3-1.9c-0.4-0.8-1.1-1.2-2-1.2c-0.5,0-0.9,0.1-1.2,0.2c-0.6,0.2-1.1,0.5-1.5,1
		c-0.4,0.4-0.6,0.8-0.7,1.3s-0.2,1.1-0.2,1.9v6.6H755V383.9z"/>
	<path fill="#7E7F80" d="M776.1,384.2c0.8,0.4,1.5,1,1.9,1.6c0.4,0.6,0.7,1.4,0.8,2.2c0.1,0.6,0.2,1.5,0.2,2.8h-9.1
		c0,1.3,0.3,2.3,0.9,3.1s1.4,1.2,2.6,1.2c1.1,0,2-0.4,2.6-1.1c0.4-0.4,0.6-0.9,0.8-1.5h2.1c-0.1,0.5-0.2,1-0.5,1.5s-0.7,1-1,1.4
		c-0.6,0.6-1.4,1-2.4,1.3c-0.5,0.1-1.1,0.2-1.7,0.2c-1.6,0-2.9-0.6-3.9-1.7s-1.6-2.7-1.6-4.8c0-2,0.5-3.7,1.6-4.9s2.5-1.9,4.3-1.9
		C774.4,383.6,775.3,383.8,776.1,384.2z M776.9,389.1c-0.1-0.9-0.3-1.6-0.6-2.2c-0.6-1-1.5-1.5-2.9-1.5c-1,0-1.8,0.3-2.4,1
		s-1,1.6-1,2.7H776.9z"/>
	<path fill="#7E7F80" d="M783,392.5c0.1,0.7,0.2,1.2,0.5,1.6c0.5,0.7,1.5,1,2.8,1c0.8,0,1.5-0.2,2.1-0.5s0.9-0.9,0.9-1.6
		c0-0.5-0.2-0.9-0.7-1.2c-0.3-0.2-0.9-0.4-1.8-0.6l-1.7-0.4c-1.1-0.3-1.9-0.6-2.4-0.9c-0.9-0.6-1.4-1.4-1.4-2.4
		c0-1.2,0.4-2.1,1.3-2.9s2-1.1,3.5-1.1c1.9,0,3.3,0.6,4.1,1.7c0.5,0.7,0.8,1.5,0.8,2.3h-2c0-0.5-0.2-0.9-0.5-1.3
		c-0.5-0.6-1.4-0.8-2.6-0.8c-0.8,0-1.4,0.2-1.9,0.5s-0.6,0.7-0.6,1.2c0,0.5,0.3,1,0.8,1.3c0.3,0.2,0.8,0.4,1.4,0.5l1.4,0.3
		c1.5,0.4,2.6,0.7,3.1,1.1c0.8,0.5,1.2,1.4,1.2,2.5c0,1.1-0.4,2.1-1.3,2.9c-0.9,0.8-2.2,1.2-3.9,1.2c-1.9,0-3.2-0.4-4-1.3
		s-1.2-1.9-1.3-3.1H783z"/>
	<path fill="#7E7F80" d="M795,392.5c0.1,0.7,0.2,1.2,0.5,1.6c0.5,0.7,1.5,1,2.8,1c0.8,0,1.5-0.2,2.1-0.5s0.9-0.9,0.9-1.6
		c0-0.5-0.2-0.9-0.7-1.2c-0.3-0.2-0.9-0.4-1.8-0.6l-1.7-0.4c-1.1-0.3-1.9-0.6-2.4-0.9c-0.9-0.6-1.4-1.4-1.4-2.4
		c0-1.2,0.4-2.1,1.3-2.9s2-1.1,3.5-1.1c1.9,0,3.3,0.6,4.1,1.7c0.5,0.7,0.8,1.5,0.8,2.3h-2c0-0.5-0.2-0.9-0.5-1.3
		c-0.5-0.6-1.4-0.8-2.6-0.8c-0.8,0-1.4,0.2-1.9,0.5s-0.6,0.7-0.6,1.2c0,0.5,0.3,1,0.8,1.3c0.3,0.2,0.8,0.4,1.4,0.5l1.4,0.3
		c1.5,0.4,2.6,0.7,3.1,1.1c0.8,0.5,1.2,1.4,1.2,2.5c0,1.1-0.4,2.1-1.3,2.9c-0.9,0.8-2.2,1.2-3.9,1.2c-1.9,0-3.2-0.4-4-1.3
		s-1.2-1.9-1.3-3.1H795z"/>
	<path fill="#7E7F80" d="M805.7,379.2h2.1v2.4h-2.1V379.2z M805.7,383.9h2.1v12.5h-2.1V383.9z"/>
	<path fill="#7E7F80" d="M812,380c0.5-0.7,1.4-1.1,2.8-1.1c0.1,0,0.3,0,0.4,0s0.3,0,0.5,0v1.9c-0.2,0-0.4,0-0.5,0s-0.2,0-0.3,0
		c-0.6,0-1,0.2-1.2,0.5s-0.2,1.2-0.2,2.5h2.1v1.7h-2.1v10.8h-2.1v-10.8h-1.7v-1.7h1.7v-2C811.6,381.1,811.8,380.4,812,380z"/>
	<path fill="#7E7F80" d="M817.7,379.2h2.1v2.4h-2.1V379.2z M817.7,383.9h2.1v12.5h-2.1V383.9z"/>
	<path fill="#7E7F80" d="M830.8,384.2c0.8,0.4,1.5,1,1.9,1.6c0.4,0.6,0.7,1.4,0.8,2.2c0.1,0.6,0.2,1.5,0.2,2.8h-9.1
		c0,1.3,0.3,2.3,0.9,3.1s1.4,1.2,2.6,1.2c1.1,0,2-0.4,2.6-1.1c0.4-0.4,0.6-0.9,0.8-1.5h2.1c-0.1,0.5-0.2,1-0.5,1.5s-0.7,1-1,1.4
		c-0.6,0.6-1.4,1-2.4,1.3c-0.5,0.1-1.1,0.2-1.7,0.2c-1.6,0-2.9-0.6-3.9-1.7s-1.6-2.7-1.6-4.8c0-2,0.5-3.7,1.6-4.9s2.5-1.9,4.3-1.9
		C829.1,383.6,830,383.8,830.8,384.2z M831.6,389.1c-0.1-0.9-0.3-1.6-0.6-2.2c-0.6-1-1.5-1.5-2.9-1.5c-1,0-1.8,0.3-2.4,1
		s-1,1.6-1,2.7H831.6z"/>
	<path fill="#7E7F80" d="M843.3,384.3c0.4,0.2,0.8,0.6,1.3,1.2v-6.3h2v17.3h-1.9v-1.7c-0.5,0.8-1.1,1.3-1.7,1.7
		c-0.7,0.3-1.4,0.5-2.3,0.5c-1.4,0-2.6-0.6-3.6-1.8s-1.5-2.7-1.5-4.7c0-1.8,0.5-3.4,1.4-4.8c0.9-1.3,2.3-2,4-2
		C841.9,383.6,842.7,383.9,843.3,384.3z M838.6,393.7c0.6,0.9,1.5,1.4,2.7,1.4c1,0,1.8-0.4,2.4-1.3c0.6-0.8,0.9-2,0.9-3.6
		c0-1.6-0.3-2.8-1-3.5s-1.4-1.1-2.4-1.1c-1.1,0-1.9,0.4-2.6,1.2c-0.7,0.8-1,2-1,3.6C837.7,391.6,838,392.8,838.6,393.7z"/>
</g>
<g enable-background="new    ">
	<path fill="#7E7F80" d="M1039.7,258.4l3.4,10.2l3.5-10.2h2.3l-4.7,12.6h-2.2l-4.6-12.6H1039.7z"/>
	<path fill="#7E7F80" d="M1057.4,263.3c0.5-0.1,0.8-0.3,1-0.6c0.1-0.2,0.1-0.5,0.1-0.8c0-0.7-0.3-1.2-0.8-1.6s-1.2-0.5-2.2-0.5
		c-1.1,0-1.9,0.3-2.3,0.9c-0.3,0.3-0.4,0.8-0.5,1.5h-2c0-1.6,0.5-2.6,1.5-3.2c1-0.6,2.1-0.9,3.4-0.9c1.5,0,2.7,0.3,3.6,0.8
		c0.9,0.6,1.4,1.4,1.4,2.6v7.2c0,0.2,0,0.4,0.1,0.5c0.1,0.1,0.3,0.2,0.6,0.2c0.1,0,0.2,0,0.3,0s0.2,0,0.4-0.1v1.6
		c-0.3,0.1-0.6,0.2-0.8,0.2s-0.4,0-0.7,0c-0.7,0-1.3-0.3-1.6-0.8c-0.2-0.3-0.3-0.7-0.4-1.2c-0.4,0.6-1,1.1-1.9,1.5s-1.7,0.6-2.7,0.6
		c-1.2,0-2.1-0.4-2.9-1.1s-1.1-1.6-1.1-2.7c0-1.2,0.4-2.1,1.1-2.7s1.7-1,2.9-1.2L1057.4,263.3z M1052.9,269c0.4,0.4,1,0.5,1.6,0.5
		c0.7,0,1.5-0.2,2.2-0.5c1.2-0.6,1.8-1.5,1.8-2.8v-1.7c-0.3,0.2-0.6,0.3-1,0.4c-0.4,0.1-0.8,0.2-1.2,0.2l-1.3,0.2
		c-0.8,0.1-1.3,0.3-1.7,0.5c-0.7,0.4-1,1-1,1.8C1052.3,268.2,1052.5,268.7,1052.9,269z"/>
	<path fill="#7E7F80" d="M1064,258.4h2v1.8c0.6-0.7,1.2-1.3,1.9-1.6s1.4-0.5,2.2-0.5c1.8,0,3,0.6,3.6,1.9c0.3,0.7,0.5,1.7,0.5,2.9
		v8.1h-2.1V263c0-0.8-0.1-1.4-0.3-1.9c-0.4-0.8-1.1-1.2-2-1.2c-0.5,0-0.9,0.1-1.2,0.2c-0.6,0.2-1.1,0.5-1.5,1
		c-0.4,0.4-0.6,0.8-0.7,1.3s-0.2,1.1-0.2,1.9v6.6h-2.1V258.4z"/>
	<path fill="#7E7F80" d="M1085.1,258.7c0.8,0.4,1.5,1,1.9,1.6c0.4,0.6,0.7,1.4,0.8,2.2c0.1,0.6,0.2,1.5,0.2,2.8h-9.1
		c0,1.3,0.3,2.3,0.9,3.1c0.6,0.8,1.4,1.2,2.6,1.2c1.1,0,2-0.4,2.6-1.1c0.4-0.4,0.6-0.9,0.8-1.5h2.1c-0.1,0.5-0.2,1-0.5,1.5
		s-0.7,1-1,1.4c-0.6,0.6-1.4,1-2.4,1.3c-0.5,0.1-1.1,0.2-1.7,0.2c-1.6,0-2.9-0.6-3.9-1.7s-1.6-2.7-1.6-4.8c0-2,0.5-3.7,1.6-4.9
		s2.5-1.9,4.3-1.9C1083.4,258.1,1084.3,258.3,1085.1,258.7z M1085.9,263.6c-0.1-0.9-0.3-1.6-0.6-2.2c-0.6-1-1.5-1.5-2.9-1.5
		c-1,0-1.8,0.3-2.4,1c-0.7,0.7-1,1.6-1,2.7H1085.9z"/>
	<path fill="#7E7F80" d="M1091.9,267c0.1,0.7,0.2,1.2,0.5,1.6c0.5,0.7,1.5,1,2.8,1c0.8,0,1.5-0.2,2.1-0.5c0.6-0.3,0.9-0.9,0.9-1.6
		c0-0.5-0.2-0.9-0.7-1.2c-0.3-0.2-0.9-0.4-1.8-0.6l-1.7-0.4c-1.1-0.3-1.9-0.6-2.4-0.9c-0.9-0.6-1.4-1.4-1.4-2.4
		c0-1.2,0.4-2.1,1.3-2.9c0.9-0.7,2-1.1,3.5-1.1c1.9,0,3.3,0.6,4.1,1.7c0.5,0.7,0.8,1.5,0.8,2.3h-2c0-0.5-0.2-0.9-0.5-1.3
		c-0.5-0.6-1.4-0.8-2.6-0.8c-0.8,0-1.4,0.2-1.9,0.5s-0.6,0.7-0.6,1.2c0,0.5,0.3,1,0.8,1.3c0.3,0.2,0.8,0.4,1.4,0.5l1.4,0.3
		c1.5,0.4,2.6,0.7,3.1,1.1c0.8,0.5,1.2,1.4,1.2,2.5c0,1.1-0.4,2.1-1.3,2.9c-0.9,0.8-2.2,1.2-3.9,1.2c-1.9,0-3.2-0.4-4-1.3
		s-1.2-1.9-1.3-3.1H1091.9z"/>
	<path fill="#7E7F80" d="M1103.9,267c0.1,0.7,0.2,1.2,0.5,1.6c0.5,0.7,1.5,1,2.8,1c0.8,0,1.5-0.2,2.1-0.5c0.6-0.3,0.9-0.9,0.9-1.6
		c0-0.5-0.2-0.9-0.7-1.2c-0.3-0.2-0.9-0.4-1.8-0.6l-1.7-0.4c-1.1-0.3-1.9-0.6-2.4-0.9c-0.9-0.6-1.4-1.4-1.4-2.4
		c0-1.2,0.4-2.1,1.3-2.9c0.9-0.7,2-1.1,3.5-1.1c1.9,0,3.3,0.6,4.1,1.7c0.5,0.7,0.8,1.5,0.8,2.3h-2c0-0.5-0.2-0.9-0.5-1.3
		c-0.5-0.6-1.4-0.8-2.6-0.8c-0.8,0-1.4,0.2-1.9,0.5s-0.6,0.7-0.6,1.2c0,0.5,0.3,1,0.8,1.3c0.3,0.2,0.8,0.4,1.4,0.5l1.4,0.3
		c1.5,0.4,2.6,0.7,3.1,1.1c0.8,0.5,1.2,1.4,1.2,2.5c0,1.1-0.4,2.1-1.3,2.9c-0.9,0.8-2.2,1.2-3.9,1.2c-1.9,0-3.2-0.4-4-1.3
		s-1.2-1.9-1.3-3.1H1103.9z"/>
	<path fill="#7E7F80" d="M1115.9,267c0.1,0.7,0.2,1.2,0.5,1.6c0.5,0.7,1.5,1,2.8,1c0.8,0,1.5-0.2,2.1-0.5c0.6-0.3,0.9-0.9,0.9-1.6
		c0-0.5-0.2-0.9-0.7-1.2c-0.3-0.2-0.9-0.4-1.8-0.6l-1.7-0.4c-1.1-0.3-1.9-0.6-2.4-0.9c-0.9-0.6-1.4-1.4-1.4-2.4
		c0-1.2,0.4-2.1,1.3-2.9c0.9-0.7,2-1.1,3.5-1.1c1.9,0,3.3,0.6,4.1,1.7c0.5,0.7,0.8,1.5,0.8,2.3h-2c0-0.5-0.2-0.9-0.5-1.3
		c-0.5-0.6-1.4-0.8-2.6-0.8c-0.8,0-1.4,0.2-1.9,0.5s-0.6,0.7-0.6,1.2c0,0.5,0.3,1,0.8,1.3c0.3,0.2,0.8,0.4,1.4,0.5l1.4,0.3
		c1.5,0.4,2.6,0.7,3.1,1.1c0.8,0.5,1.2,1.4,1.2,2.5c0,1.1-0.4,2.1-1.3,2.9c-0.9,0.8-2.2,1.2-3.9,1.2c-1.9,0-3.2-0.4-4-1.3
		s-1.2-1.9-1.3-3.1H1115.9z"/>
	<path fill="#7E7F80" d="M1126.7,253.7h2.1v2.4h-2.1V253.7z M1126.7,258.4h2.1v12.5h-2.1V258.4z"/>
	<path fill="#7E7F80" d="M1133,254.5c0.5-0.7,1.4-1.1,2.8-1.1c0.1,0,0.3,0,0.4,0s0.3,0,0.5,0v1.9c-0.2,0-0.4,0-0.5,0s-0.2,0-0.3,0
		c-0.6,0-1,0.2-1.2,0.5c-0.1,0.3-0.2,1.2-0.2,2.5h2.1v1.7h-2.1v10.8h-2.1v-10.8h-1.7v-1.7h1.7v-2
		C1132.6,255.6,1132.7,254.9,1133,254.5z"/>
	<path fill="#7E7F80" d="M1138.7,253.7h2.1v2.4h-2.1V253.7z M1138.7,258.4h2.1v12.5h-2.1V258.4z"/>
	<path fill="#7E7F80" d="M1151.8,258.7c0.8,0.4,1.5,1,1.9,1.6c0.4,0.6,0.7,1.4,0.8,2.2c0.1,0.6,0.2,1.5,0.2,2.8h-9.1
		c0,1.3,0.3,2.3,0.9,3.1c0.6,0.8,1.4,1.2,2.6,1.2c1.1,0,2-0.4,2.6-1.1c0.4-0.4,0.6-0.9,0.8-1.5h2.1c-0.1,0.5-0.2,1-0.5,1.5
		s-0.7,1-1,1.4c-0.6,0.6-1.4,1-2.4,1.3c-0.5,0.1-1.1,0.2-1.7,0.2c-1.6,0-2.9-0.6-3.9-1.7s-1.6-2.7-1.6-4.8c0-2,0.5-3.7,1.6-4.9
		s2.5-1.9,4.3-1.9C1150.1,258.1,1150.9,258.3,1151.8,258.7z M1152.5,263.6c-0.1-0.9-0.3-1.6-0.6-2.2c-0.6-1-1.5-1.5-2.9-1.5
		c-1,0-1.8,0.3-2.4,1c-0.7,0.7-1,1.6-1,2.7H1152.5z"/>
	<path fill="#7E7F80" d="M1164.3,258.8c0.4,0.2,0.8,0.6,1.3,1.2v-6.3h2v17.3h-1.9v-1.7c-0.5,0.8-1.1,1.3-1.7,1.7
		c-0.7,0.3-1.4,0.5-2.3,0.5c-1.4,0-2.6-0.6-3.6-1.8s-1.5-2.7-1.5-4.7c0-1.8,0.5-3.4,1.4-4.8s2.3-2,4-2
		C1162.8,258.1,1163.6,258.4,1164.3,258.8z M1159.6,268.2c0.6,0.9,1.5,1.4,2.7,1.4c1,0,1.8-0.4,2.4-1.3c0.6-0.8,0.9-2,0.9-3.6
		c0-1.6-0.3-2.8-1-3.5c-0.6-0.8-1.4-1.1-2.4-1.1c-1.1,0-1.9,0.4-2.6,1.2c-0.7,0.8-1,2-1,3.6C1158.7,266.1,1159,267.3,1159.6,268.2z"
		/>
</g>
<g enable-background="new    ">
	<path fill="#7E7F80" d="M1039.7,524.7l3.4,10.2l3.5-10.2h2.3l-4.7,12.6h-2.2l-4.6-12.6H1039.7z"/>
	<path fill="#7E7F80" d="M1057.4,529.7c0.5-0.1,0.8-0.3,1-0.6c0.1-0.2,0.1-0.5,0.1-0.8c0-0.7-0.3-1.2-0.8-1.6s-1.2-0.5-2.2-0.5
		c-1.1,0-1.9,0.3-2.3,0.9c-0.3,0.3-0.4,0.8-0.5,1.5h-2c0-1.6,0.5-2.6,1.5-3.2c1-0.6,2.1-0.9,3.4-0.9c1.5,0,2.7,0.3,3.6,0.8
		c0.9,0.6,1.4,1.4,1.4,2.6v7.2c0,0.2,0,0.4,0.1,0.5c0.1,0.1,0.3,0.2,0.6,0.2c0.1,0,0.2,0,0.3,0s0.2,0,0.4-0.1v1.6
		c-0.3,0.1-0.6,0.2-0.8,0.2s-0.4,0-0.7,0c-0.7,0-1.3-0.3-1.6-0.8c-0.2-0.3-0.3-0.7-0.4-1.2c-0.4,0.6-1,1.1-1.9,1.5s-1.7,0.6-2.7,0.6
		c-1.2,0-2.1-0.4-2.9-1.1s-1.1-1.6-1.1-2.7c0-1.2,0.4-2.1,1.1-2.7s1.7-1,2.9-1.2L1057.4,529.7z M1052.9,535.4c0.4,0.4,1,0.5,1.6,0.5
		c0.7,0,1.5-0.2,2.2-0.5c1.2-0.6,1.8-1.5,1.8-2.8v-1.7c-0.3,0.2-0.6,0.3-1,0.4c-0.4,0.1-0.8,0.2-1.2,0.2l-1.3,0.2
		c-0.8,0.1-1.3,0.3-1.7,0.5c-0.7,0.4-1,1-1,1.8C1052.3,534.5,1052.5,535,1052.9,535.4z"/>
	<path fill="#7E7F80" d="M1064,524.7h2v1.8c0.6-0.7,1.2-1.3,1.9-1.6s1.4-0.5,2.2-0.5c1.8,0,3,0.6,3.6,1.9c0.3,0.7,0.5,1.7,0.5,2.9
		v8.1h-2.1v-7.9c0-0.8-0.1-1.4-0.3-1.9c-0.4-0.8-1.1-1.2-2-1.2c-0.5,0-0.9,0.1-1.2,0.2c-0.6,0.2-1.1,0.5-1.5,1
		c-0.4,0.4-0.6,0.8-0.7,1.3s-0.2,1.1-0.2,1.9v6.6h-2.1V524.7z"/>
	<path fill="#7E7F80" d="M1085.1,525.1c0.8,0.4,1.5,1,1.9,1.6c0.4,0.6,0.7,1.4,0.8,2.2c0.1,0.6,0.2,1.5,0.2,2.8h-9.1
		c0,1.3,0.3,2.3,0.9,3.1c0.6,0.8,1.4,1.2,2.6,1.2c1.1,0,2-0.4,2.6-1.1c0.4-0.4,0.6-0.9,0.8-1.5h2.1c-0.1,0.5-0.2,1-0.5,1.5
		s-0.7,1-1,1.4c-0.6,0.6-1.4,1-2.4,1.3c-0.5,0.1-1.1,0.2-1.7,0.2c-1.6,0-2.9-0.6-3.9-1.7s-1.6-2.7-1.6-4.8c0-2,0.5-3.7,1.6-4.9
		s2.5-1.9,4.3-1.9C1083.4,524.4,1084.3,524.7,1085.1,525.1z M1085.9,530c-0.1-0.9-0.3-1.6-0.6-2.2c-0.6-1-1.5-1.5-2.9-1.5
		c-1,0-1.8,0.3-2.4,1c-0.7,0.7-1,1.6-1,2.7H1085.9z"/>
	<path fill="#7E7F80" d="M1091.9,533.3c0.1,0.7,0.2,1.2,0.5,1.6c0.5,0.7,1.5,1,2.8,1c0.8,0,1.5-0.2,2.1-0.5c0.6-0.3,0.9-0.9,0.9-1.6
		c0-0.5-0.2-0.9-0.7-1.2c-0.3-0.2-0.9-0.4-1.8-0.6l-1.7-0.4c-1.1-0.3-1.9-0.6-2.4-0.9c-0.9-0.6-1.4-1.4-1.4-2.4
		c0-1.2,0.4-2.1,1.3-2.9c0.9-0.7,2-1.1,3.5-1.1c1.9,0,3.3,0.6,4.1,1.7c0.5,0.7,0.8,1.5,0.8,2.3h-2c0-0.5-0.2-0.9-0.5-1.3
		c-0.5-0.6-1.4-0.8-2.6-0.8c-0.8,0-1.4,0.2-1.9,0.5s-0.6,0.7-0.6,1.2c0,0.5,0.3,1,0.8,1.3c0.3,0.2,0.8,0.4,1.4,0.5l1.4,0.3
		c1.5,0.4,2.6,0.7,3.1,1.1c0.8,0.5,1.2,1.4,1.2,2.5c0,1.1-0.4,2.1-1.3,2.9c-0.9,0.8-2.2,1.2-3.9,1.2c-1.9,0-3.2-0.4-4-1.3
		s-1.2-1.9-1.3-3.1H1091.9z"/>
	<path fill="#7E7F80" d="M1103.9,533.3c0.1,0.7,0.2,1.2,0.5,1.6c0.5,0.7,1.5,1,2.8,1c0.8,0,1.5-0.2,2.1-0.5c0.6-0.3,0.9-0.9,0.9-1.6
		c0-0.5-0.2-0.9-0.7-1.2c-0.3-0.2-0.9-0.4-1.8-0.6l-1.7-0.4c-1.1-0.3-1.9-0.6-2.4-0.9c-0.9-0.6-1.4-1.4-1.4-2.4
		c0-1.2,0.4-2.1,1.3-2.9c0.9-0.7,2-1.1,3.5-1.1c1.9,0,3.3,0.6,4.1,1.7c0.5,0.7,0.8,1.5,0.8,2.3h-2c0-0.5-0.2-0.9-0.5-1.3
		c-0.5-0.6-1.4-0.8-2.6-0.8c-0.8,0-1.4,0.2-1.9,0.5s-0.6,0.7-0.6,1.2c0,0.5,0.3,1,0.8,1.3c0.3,0.2,0.8,0.4,1.4,0.5l1.4,0.3
		c1.5,0.4,2.6,0.7,3.1,1.1c0.8,0.5,1.2,1.4,1.2,2.5c0,1.1-0.4,2.1-1.3,2.9c-0.9,0.8-2.2,1.2-3.9,1.2c-1.9,0-3.2-0.4-4-1.3
		s-1.2-1.9-1.3-3.1H1103.9z"/>
	<path fill="#7E7F80" d="M1114.7,520.1h2.1v2.4h-2.1V520.1z M1114.7,524.8h2.1v12.5h-2.1V524.8z"/>
	<path fill="#7E7F80" d="M1121,520.9c0.5-0.7,1.4-1.1,2.8-1.1c0.1,0,0.3,0,0.4,0s0.3,0,0.5,0v1.9c-0.2,0-0.4,0-0.5,0s-0.2,0-0.3,0
		c-0.6,0-1,0.2-1.2,0.5c-0.1,0.3-0.2,1.2-0.2,2.5h2.1v1.7h-2.1v10.8h-2.1v-10.8h-1.7v-1.7h1.7v-2
		C1120.6,521.9,1120.7,521.3,1121,520.9z"/>
	<path fill="#7E7F80" d="M1126.7,520.1h2.1v2.4h-2.1V520.1z M1126.7,524.8h2.1v12.5h-2.1V524.8z"/>
	<path fill="#7E7F80" d="M1139.8,525.1c0.8,0.4,1.5,1,1.9,1.6c0.4,0.6,0.7,1.4,0.8,2.2c0.1,0.6,0.2,1.5,0.2,2.8h-9.1
		c0,1.3,0.3,2.3,0.9,3.1c0.6,0.8,1.4,1.2,2.6,1.2c1.1,0,2-0.4,2.6-1.1c0.4-0.4,0.6-0.9,0.8-1.5h2.1c-0.1,0.5-0.2,1-0.5,1.5
		s-0.7,1-1,1.4c-0.6,0.6-1.4,1-2.4,1.3c-0.5,0.1-1.1,0.2-1.7,0.2c-1.6,0-2.9-0.6-3.9-1.7s-1.6-2.7-1.6-4.8c0-2,0.5-3.7,1.6-4.9
		s2.5-1.9,4.3-1.9C1138.1,524.4,1138.9,524.7,1139.8,525.1z M1140.5,530c-0.1-0.9-0.3-1.6-0.6-2.2c-0.6-1-1.5-1.5-2.9-1.5
		c-1,0-1.8,0.3-2.4,1c-0.7,0.7-1,1.6-1,2.7H1140.5z"/>
	<path fill="#7E7F80" d="M1152.3,525.1c0.4,0.2,0.8,0.6,1.3,1.2V520h2v17.3h-1.9v-1.7c-0.5,0.8-1.1,1.3-1.7,1.7
		c-0.7,0.3-1.4,0.5-2.3,0.5c-1.4,0-2.6-0.6-3.6-1.8s-1.5-2.7-1.5-4.7c0-1.8,0.5-3.4,1.4-4.8s2.3-2,4-2
		C1150.8,524.5,1151.6,524.7,1152.3,525.1z M1147.6,534.5c0.6,0.9,1.5,1.4,2.7,1.4c1,0,1.8-0.4,2.4-1.3c0.6-0.8,0.9-2,0.9-3.6
		c0-1.6-0.3-2.8-1-3.5c-0.6-0.8-1.4-1.1-2.4-1.1c-1.1,0-1.9,0.4-2.6,1.2c-0.7,0.8-1,2-1,3.6C1146.7,532.5,1147,533.6,1147.6,534.5z"
		/>
	<path fill="#7E7F80" d="M1165.6,525.1c0.4,0.2,0.8,0.6,1.3,1.2V520h2v17.3h-1.9v-1.7c-0.5,0.8-1.1,1.3-1.7,1.7
		c-0.7,0.3-1.4,0.5-2.3,0.5c-1.4,0-2.6-0.6-3.6-1.8s-1.5-2.7-1.5-4.7c0-1.8,0.5-3.4,1.4-4.8s2.3-2,4-2
		C1164.2,524.5,1165,524.7,1165.6,525.1z M1160.9,534.5c0.6,0.9,1.5,1.4,2.7,1.4c1,0,1.8-0.4,2.4-1.3c0.6-0.8,0.9-2,0.9-3.6
		c0-1.6-0.3-2.8-1-3.5c-0.6-0.8-1.4-1.1-2.4-1.1c-1.1,0-1.9,0.4-2.6,1.2c-0.7,0.8-1,2-1,3.6C1160.1,532.5,1160.3,533.6,1160.9,534.5
		z"/>
	<path fill="#7E7F80" d="M1179,525.1c0.4,0.2,0.8,0.6,1.3,1.2V520h2v17.3h-1.9v-1.7c-0.5,0.8-1.1,1.3-1.7,1.7
		c-0.7,0.3-1.4,0.5-2.3,0.5c-1.4,0-2.6-0.6-3.6-1.8s-1.5-2.7-1.5-4.7c0-1.8,0.5-3.4,1.4-4.8s2.3-2,4-2
		C1177.5,524.5,1178.3,524.7,1179,525.1z M1174.3,534.5c0.6,0.9,1.5,1.4,2.7,1.4c1,0,1.8-0.4,2.4-1.3c0.6-0.8,0.9-2,0.9-3.6
		c0-1.6-0.3-2.8-1-3.5c-0.6-0.8-1.4-1.1-2.4-1.1c-1.1,0-1.9,0.4-2.6,1.2c-0.7,0.8-1,2-1,3.6C1173.4,532.5,1173.7,533.6,1174.3,534.5
		z"/>
</g>
<g enable-background="new    ">
	<path fill="#7E7F80" d="M1269.4,383.9l3.4,10.2l3.5-10.2h2.3l-4.7,12.6h-2.2l-4.6-12.6H1269.4z"/>
	<path fill="#7E7F80" d="M1280.4,383.9h2v1.8c0.6-0.7,1.2-1.3,1.9-1.6s1.4-0.5,2.2-0.5c1.8,0,3,0.6,3.6,1.9c0.3,0.7,0.5,1.7,0.5,2.9
		v8.1h-2.1v-7.9c0-0.8-0.1-1.4-0.3-1.9c-0.4-0.8-1.1-1.2-2-1.2c-0.5,0-0.9,0.1-1.2,0.2c-0.6,0.2-1.1,0.5-1.5,1
		c-0.4,0.4-0.6,0.8-0.7,1.3s-0.2,1.1-0.2,1.9v6.6h-2.1V383.9z"/>
	<path fill="#7E7F80" d="M1301.5,384.2c0.8,0.4,1.5,1,1.9,1.6c0.4,0.6,0.7,1.4,0.8,2.2c0.1,0.6,0.2,1.5,0.2,2.8h-9.1
		c0,1.3,0.3,2.3,0.9,3.1c0.6,0.8,1.4,1.2,2.6,1.2c1.1,0,2-0.4,2.6-1.1c0.4-0.4,0.6-0.9,0.8-1.5h2.1c-0.1,0.5-0.2,1-0.5,1.5
		s-0.7,1-1,1.4c-0.6,0.6-1.4,1-2.4,1.3c-0.5,0.1-1.1,0.2-1.7,0.2c-1.6,0-2.9-0.6-3.9-1.7s-1.6-2.7-1.6-4.8c0-2,0.5-3.7,1.6-4.9
		s2.5-1.9,4.3-1.9C1299.8,383.6,1300.7,383.8,1301.5,384.2z M1302.3,389.1c-0.1-0.9-0.3-1.6-0.6-2.2c-0.6-1-1.5-1.5-2.9-1.5
		c-1,0-1.8,0.3-2.4,1c-0.7,0.7-1,1.6-1,2.7H1302.3z"/>
	<path fill="#7E7F80" d="M1308.3,392.5c0.1,0.7,0.2,1.2,0.5,1.6c0.5,0.7,1.5,1,2.8,1c0.8,0,1.5-0.2,2.1-0.5c0.6-0.3,0.9-0.9,0.9-1.6
		c0-0.5-0.2-0.9-0.7-1.2c-0.3-0.2-0.9-0.4-1.8-0.6l-1.7-0.4c-1.1-0.3-1.9-0.6-2.4-0.9c-0.9-0.6-1.4-1.4-1.4-2.4
		c0-1.2,0.4-2.1,1.3-2.9c0.9-0.7,2-1.1,3.5-1.1c1.9,0,3.3,0.6,4.1,1.7c0.5,0.7,0.8,1.5,0.8,2.3h-2c0-0.5-0.2-0.9-0.5-1.3
		c-0.5-0.6-1.4-0.8-2.6-0.8c-0.8,0-1.4,0.2-1.9,0.5s-0.6,0.7-0.6,1.2c0,0.5,0.3,1,0.8,1.3c0.3,0.2,0.8,0.4,1.4,0.5l1.4,0.3
		c1.5,0.4,2.6,0.7,3.1,1.1c0.8,0.5,1.2,1.4,1.2,2.5c0,1.1-0.4,2.1-1.3,2.9c-0.9,0.8-2.2,1.2-3.9,1.2c-1.9,0-3.2-0.4-4-1.3
		s-1.2-1.9-1.3-3.1H1308.3z"/>
	<path fill="#7E7F80" d="M1320.3,392.5c0.1,0.7,0.2,1.2,0.5,1.6c0.5,0.7,1.5,1,2.8,1c0.8,0,1.5-0.2,2.1-0.5c0.6-0.3,0.9-0.9,0.9-1.6
		c0-0.5-0.2-0.9-0.7-1.2c-0.3-0.2-0.9-0.4-1.8-0.6l-1.7-0.4c-1.1-0.3-1.9-0.6-2.4-0.9c-0.9-0.6-1.4-1.4-1.4-2.4
		c0-1.2,0.4-2.1,1.3-2.9c0.9-0.7,2-1.1,3.5-1.1c1.9,0,3.3,0.6,4.1,1.7c0.5,0.7,0.8,1.5,0.8,2.3h-2c0-0.5-0.2-0.9-0.5-1.3
		c-0.5-0.6-1.4-0.8-2.6-0.8c-0.8,0-1.4,0.2-1.9,0.5s-0.6,0.7-0.6,1.2c0,0.5,0.3,1,0.8,1.3c0.3,0.2,0.8,0.4,1.4,0.5l1.4,0.3
		c1.5,0.4,2.6,0.7,3.1,1.1c0.8,0.5,1.2,1.4,1.2,2.5c0,1.1-0.4,2.1-1.3,2.9c-0.9,0.8-2.2,1.2-3.9,1.2c-1.9,0-3.2-0.4-4-1.3
		s-1.2-1.9-1.3-3.1H1320.3z"/>
	<path fill="#7E7F80" d="M1331.1,379.2h2.1v2.4h-2.1V379.2z M1331.1,383.9h2.1v12.5h-2.1V383.9z"/>
	<path fill="#7E7F80" d="M1337.4,380c0.5-0.7,1.4-1.1,2.8-1.1c0.1,0,0.3,0,0.4,0s0.3,0,0.5,0v1.9c-0.2,0-0.4,0-0.5,0s-0.2,0-0.3,0
		c-0.6,0-1,0.2-1.2,0.5c-0.1,0.3-0.2,1.2-0.2,2.5h2.1v1.7h-2.1v10.8h-2.1v-10.8h-1.7v-1.7h1.7v-2
		C1337,381.1,1337.1,380.4,1337.4,380z"/>
	<path fill="#7E7F80" d="M1343.1,379.2h2.1v2.4h-2.1V379.2z M1343.1,383.9h2.1v12.5h-2.1V383.9z"/>
	<path fill="#7E7F80" d="M1356.2,384.2c0.8,0.4,1.5,1,1.9,1.6c0.4,0.6,0.7,1.4,0.8,2.2c0.1,0.6,0.2,1.5,0.2,2.8h-9.1
		c0,1.3,0.3,2.3,0.9,3.1c0.6,0.8,1.4,1.2,2.6,1.2c1.1,0,2-0.4,2.6-1.1c0.4-0.4,0.6-0.9,0.8-1.5h2.1c-0.1,0.5-0.2,1-0.5,1.5
		s-0.7,1-1,1.4c-0.6,0.6-1.4,1-2.4,1.3c-0.5,0.1-1.1,0.2-1.7,0.2c-1.6,0-2.9-0.6-3.9-1.7s-1.6-2.7-1.6-4.8c0-2,0.5-3.7,1.6-4.9
		s2.5-1.9,4.3-1.9C1354.5,383.6,1355.3,383.8,1356.2,384.2z M1356.9,389.1c-0.1-0.9-0.3-1.6-0.6-2.2c-0.6-1-1.5-1.5-2.9-1.5
		c-1,0-1.8,0.3-2.4,1c-0.7,0.7-1,1.6-1,2.7H1356.9z"/>
	<path fill="#7E7F80" d="M1368.7,384.3c0.4,0.2,0.8,0.6,1.3,1.2v-6.3h2v17.3h-1.9v-1.7c-0.5,0.8-1.1,1.3-1.7,1.7
		c-0.7,0.3-1.4,0.5-2.3,0.5c-1.4,0-2.6-0.6-3.6-1.8s-1.5-2.7-1.5-4.7c0-1.8,0.5-3.4,1.4-4.8s2.3-2,4-2
		C1367.2,383.6,1368,383.9,1368.7,384.3z M1364,393.7c0.6,0.9,1.5,1.4,2.7,1.4c1,0,1.8-0.4,2.4-1.3c0.6-0.8,0.9-2,0.9-3.6
		c0-1.6-0.3-2.8-1-3.5c-0.6-0.8-1.4-1.1-2.4-1.1c-1.1,0-1.9,0.4-2.6,1.2c-0.7,0.8-1,2-1,3.6C1363.1,391.6,1363.4,392.8,1364,393.7z"
		/>
</g>
<g enable-background="new    ">
	<path fill="#7E7F80" d="M374.3,321.2l4.9,14.7l4.9-14.7h2.6l-6.3,17.2H378l-6.3-17.2H374.3z"/>
	<path fill="#7E7F80" d="M393.6,330.8c0.5-0.1,0.8-0.3,1-0.6c0.1-0.2,0.1-0.5,0.1-0.8c0-0.7-0.3-1.2-0.8-1.6s-1.2-0.5-2.2-0.5
		c-1.1,0-1.9,0.3-2.3,0.9c-0.3,0.3-0.4,0.8-0.5,1.5h-2c0-1.6,0.5-2.6,1.5-3.2c1-0.6,2.1-0.9,3.4-0.9c1.5,0,2.7,0.3,3.6,0.8
		c0.9,0.6,1.4,1.4,1.4,2.6v7.2c0,0.2,0,0.4,0.1,0.5c0.1,0.1,0.3,0.2,0.6,0.2c0.1,0,0.2,0,0.3,0s0.2,0,0.4-0.1v1.6
		c-0.3,0.1-0.6,0.2-0.8,0.2s-0.4,0-0.7,0c-0.7,0-1.3-0.3-1.6-0.8c-0.2-0.3-0.3-0.7-0.4-1.2c-0.4,0.6-1,1.1-1.9,1.5s-1.7,0.6-2.7,0.6
		c-1.2,0-2.1-0.4-2.9-1.1s-1.1-1.6-1.1-2.7c0-1.2,0.4-2.1,1.1-2.7s1.7-1,2.9-1.2L393.6,330.8z M389.2,336.5c0.4,0.4,1,0.5,1.6,0.5
		c0.7,0,1.5-0.2,2.2-0.5c1.2-0.6,1.8-1.5,1.8-2.8V332c-0.3,0.2-0.6,0.3-1,0.4c-0.4,0.1-0.8,0.2-1.2,0.2l-1.3,0.2
		c-0.8,0.1-1.3,0.3-1.7,0.5c-0.7,0.4-1,1-1,1.8C388.5,335.7,388.7,336.2,389.2,336.5z"/>
	<path fill="#7E7F80" d="M400.2,325.9h2v1.8c0.6-0.7,1.2-1.3,1.9-1.6s1.4-0.5,2.2-0.5c1.8,0,3,0.6,3.6,1.9c0.3,0.7,0.5,1.7,0.5,2.9
		v8.1h-2.1v-7.9c0-0.8-0.1-1.4-0.3-1.9c-0.4-0.8-1.1-1.2-2-1.2c-0.5,0-0.9,0.1-1.2,0.2c-0.6,0.2-1.1,0.5-1.5,1
		c-0.4,0.4-0.6,0.8-0.7,1.3s-0.2,1.1-0.2,1.9v6.6h-2.1V325.9z"/>
	<path fill="#7E7F80" d="M421.3,326.2c0.8,0.4,1.5,1,1.9,1.6c0.4,0.6,0.7,1.4,0.8,2.2c0.1,0.6,0.2,1.5,0.2,2.8h-9.1
		c0,1.3,0.3,2.3,0.9,3.1s1.4,1.2,2.6,1.2c1.1,0,2-0.4,2.6-1.1c0.4-0.4,0.6-0.9,0.8-1.5h2.1c-0.1,0.5-0.2,1-0.5,1.5s-0.7,1-1,1.4
		c-0.6,0.6-1.4,1-2.4,1.3c-0.5,0.1-1.1,0.2-1.7,0.2c-1.6,0-2.9-0.6-3.9-1.7s-1.6-2.7-1.6-4.8c0-2,0.5-3.7,1.6-4.9s2.5-1.9,4.3-1.9
		C419.6,325.6,420.5,325.8,421.3,326.2z M422.1,331.1c-0.1-0.9-0.3-1.6-0.6-2.2c-0.6-1-1.5-1.5-2.9-1.5c-1,0-1.8,0.3-2.4,1
		s-1,1.6-1,2.7H422.1z"/>
	<path fill="#7E7F80" d="M428.2,334.5c0.1,0.7,0.2,1.2,0.5,1.6c0.5,0.7,1.5,1,2.8,1c0.8,0,1.5-0.2,2.1-0.5s0.9-0.9,0.9-1.6
		c0-0.5-0.2-0.9-0.7-1.2c-0.3-0.2-0.9-0.4-1.8-0.6l-1.7-0.4c-1.1-0.3-1.9-0.6-2.4-0.9c-0.9-0.6-1.4-1.4-1.4-2.4
		c0-1.2,0.4-2.1,1.3-2.9s2-1.1,3.5-1.1c1.9,0,3.3,0.6,4.1,1.7c0.5,0.7,0.8,1.5,0.8,2.3h-2c0-0.5-0.2-0.9-0.5-1.3
		c-0.5-0.6-1.4-0.8-2.6-0.8c-0.8,0-1.4,0.2-1.9,0.5s-0.6,0.7-0.6,1.2c0,0.5,0.3,1,0.8,1.3c0.3,0.2,0.8,0.4,1.4,0.5l1.4,0.3
		c1.5,0.4,2.6,0.7,3.1,1.1c0.8,0.5,1.2,1.4,1.2,2.5c0,1.1-0.4,2.1-1.3,2.9c-0.9,0.8-2.2,1.2-3.9,1.2c-1.9,0-3.2-0.4-4-1.3
		s-1.2-1.9-1.3-3.1H428.2z"/>
	<path fill="#7E7F80" d="M440.2,334.5c0.1,0.7,0.2,1.2,0.5,1.6c0.5,0.7,1.5,1,2.8,1c0.8,0,1.5-0.2,2.1-0.5s0.9-0.9,0.9-1.6
		c0-0.5-0.2-0.9-0.7-1.2c-0.3-0.2-0.9-0.4-1.8-0.6l-1.7-0.4c-1.1-0.3-1.9-0.6-2.4-0.9c-0.9-0.6-1.4-1.4-1.4-2.4
		c0-1.2,0.4-2.1,1.3-2.9s2-1.1,3.5-1.1c1.9,0,3.3,0.6,4.1,1.7c0.5,0.7,0.8,1.5,0.8,2.3h-2c0-0.5-0.2-0.9-0.5-1.3
		c-0.5-0.6-1.4-0.8-2.6-0.8c-0.8,0-1.4,0.2-1.9,0.5s-0.6,0.7-0.6,1.2c0,0.5,0.3,1,0.8,1.3c0.3,0.2,0.8,0.4,1.4,0.5l1.4,0.3
		c1.5,0.4,2.6,0.7,3.1,1.1c0.8,0.5,1.2,1.4,1.2,2.5c0,1.1-0.4,2.1-1.3,2.9c-0.9,0.8-2.2,1.2-3.9,1.2c-1.9,0-3.2-0.4-4-1.3
		s-1.2-1.9-1.3-3.1H440.2z"/>
	<path fill="#7E7F80" d="M457.6,330.8c0.5-0.1,0.8-0.3,1-0.6c0.1-0.2,0.1-0.5,0.1-0.8c0-0.7-0.3-1.2-0.8-1.6s-1.2-0.5-2.2-0.5
		c-1.1,0-1.9,0.3-2.3,0.9c-0.3,0.3-0.4,0.8-0.5,1.5h-2c0-1.6,0.5-2.6,1.5-3.2c1-0.6,2.1-0.9,3.4-0.9c1.5,0,2.7,0.3,3.6,0.8
		c0.9,0.6,1.4,1.4,1.4,2.6v7.2c0,0.2,0,0.4,0.1,0.5c0.1,0.1,0.3,0.2,0.6,0.2c0.1,0,0.2,0,0.3,0s0.2,0,0.4-0.1v1.6
		c-0.3,0.1-0.6,0.2-0.8,0.2s-0.4,0-0.7,0c-0.7,0-1.3-0.3-1.6-0.8c-0.2-0.3-0.3-0.7-0.4-1.2c-0.4,0.6-1,1.1-1.9,1.5s-1.7,0.6-2.7,0.6
		c-1.2,0-2.1-0.4-2.9-1.1s-1.1-1.6-1.1-2.7c0-1.2,0.4-2.1,1.1-2.7s1.7-1,2.9-1.2L457.6,330.8z M453.2,336.5c0.4,0.4,1,0.5,1.6,0.5
		c0.7,0,1.5-0.2,2.2-0.5c1.2-0.6,1.8-1.5,1.8-2.8V332c-0.3,0.2-0.6,0.3-1,0.4c-0.4,0.1-0.8,0.2-1.2,0.2l-1.3,0.2
		c-0.8,0.1-1.3,0.3-1.7,0.5c-0.7,0.4-1,1-1,1.8C452.5,335.7,452.8,336.2,453.2,336.5z"/>
</g>
<g enable-background="new    ">
	<path fill="#7E7F80" d="M414,446.7h5.9v2.2H414V446.7z"/>
	<path fill="#7E7F80" d="M423.6,438c0.5-0.7,1.4-1.1,2.8-1.1c0.1,0,0.3,0,0.4,0s0.3,0,0.5,0v1.9c-0.2,0-0.4,0-0.5,0s-0.2,0-0.3,0
		c-0.6,0-1,0.2-1.2,0.5s-0.2,1.2-0.2,2.5h2.1v1.7h-2.1v10.8h-2.1v-10.8h-1.7v-1.7h1.7v-2C423.1,439.1,423.3,438.4,423.6,438z"/>
	<path fill="#7E7F80" d="M429.2,437.2h2.1v2.4h-2.1V437.2z M429.2,441.9h2.1v12.5h-2.1V441.9z"/>
	<path fill="#7E7F80" d="M442.3,442.2c0.8,0.4,1.5,1,1.9,1.6c0.4,0.6,0.7,1.4,0.8,2.2c0.1,0.6,0.2,1.5,0.2,2.8h-9.1
		c0,1.3,0.3,2.3,0.9,3.1s1.4,1.2,2.6,1.2c1.1,0,2-0.4,2.6-1.1c0.4-0.4,0.6-0.9,0.8-1.5h2.1c-0.1,0.5-0.2,1-0.5,1.5s-0.7,1-1,1.4
		c-0.6,0.6-1.4,1-2.4,1.3c-0.5,0.1-1.1,0.2-1.7,0.2c-1.6,0-2.9-0.6-3.9-1.7s-1.6-2.7-1.6-4.8c0-2,0.5-3.7,1.6-4.9s2.5-1.9,4.3-1.9
		C440.6,441.6,441.5,441.8,442.3,442.2z M443.1,447.1c-0.1-0.9-0.3-1.6-0.6-2.2c-0.6-1-1.5-1.5-2.9-1.5c-1,0-1.8,0.3-2.4,1
		s-1,1.6-1,2.7H443.1z"/>
	<path fill="#7E7F80" d="M454.8,442.3c0.4,0.2,0.8,0.6,1.3,1.2v-6.3h2v17.3h-1.9v-1.7c-0.5,0.8-1.1,1.3-1.7,1.7
		c-0.7,0.3-1.4,0.5-2.3,0.5c-1.4,0-2.6-0.6-3.6-1.8s-1.5-2.7-1.5-4.7c0-1.8,0.5-3.4,1.4-4.8c0.9-1.3,2.3-2,4-2
		C453.4,441.6,454.2,441.9,454.8,442.3z M450.1,451.7c0.6,0.9,1.5,1.4,2.7,1.4c1,0,1.8-0.4,2.4-1.3c0.6-0.8,0.9-2,0.9-3.6
		c0-1.6-0.3-2.8-1-3.5s-1.4-1.1-2.4-1.1c-1.1,0-1.9,0.4-2.6,1.2c-0.7,0.8-1,2-1,3.6C449.3,449.6,449.5,450.8,450.1,451.7z"/>
</g>
<rect x="371.1" y="266.8" fill="#236EB6" fill-opacity="0.3" width="91" height="33"/>
<g>
	<g>
		<path fill="#236EB6" d="M382.8,278.3h8.3v1.4h-6.8v3.5h6.3v1.3h-6.3v3.9h6.9v1.4h-8.4V278.3z"/>
		<path fill="#236EB6" d="M393.4,278.3h1.8l5.7,9.3v-9.3h1.5v11.5h-1.7l-5.8-9.3v9.3h-1.5V278.3z"/>
		<path fill="#236EB6" d="M412.6,278.6c1.1,0.6,1.8,1.6,2.1,3.1h-1.5c-0.2-0.8-0.6-1.4-1.1-1.8c-0.6-0.4-1.3-0.6-2.2-0.6
			c-1,0-1.9,0.4-2.6,1.2c-0.7,0.8-1.1,2-1.1,3.6c0,1.4,0.3,2.5,0.9,3.3s1.5,1.3,2.9,1.3c1,0,1.9-0.3,2.5-0.9s1-1.6,1-2.9h-3.6v-1.3
			h5v6.1h-1l-0.4-1.5c-0.5,0.6-1,1-1.4,1.2c-0.7,0.4-1.5,0.6-2.6,0.6c-1.3,0-2.5-0.4-3.5-1.3c-1-1.1-1.6-2.6-1.6-4.5
			c0-1.9,0.5-3.5,1.5-4.6c1-1.1,2.2-1.6,3.8-1.6C410.9,278,411.8,278.2,412.6,278.6z"/>
		<path fill="#236EB6" d="M417.4,278.3h1.6v10.1h5.8v1.4h-7.3V278.3z"/>
		<path fill="#236EB6" d="M426.6,278.3h1.6v11.5h-1.6V278.3z"/>
		<path fill="#236EB6" d="M431.7,286.1c0,0.7,0.2,1.2,0.4,1.6c0.5,0.8,1.4,1.1,2.6,1.1c0.6,0,1.1-0.1,1.5-0.2
			c0.9-0.3,1.3-0.9,1.3-1.7c0-0.6-0.2-1.1-0.6-1.3c-0.4-0.3-1-0.5-1.8-0.7l-1.5-0.4c-1-0.2-1.7-0.5-2.1-0.8
			c-0.7-0.5-1.1-1.2-1.1-2.1c0-1,0.3-1.9,1-2.5s1.7-1,2.9-1c1.2,0,2.2,0.3,3,0.9c0.8,0.6,1.2,1.5,1.2,2.8h-1.5
			c-0.1-0.6-0.2-1.1-0.5-1.4c-0.5-0.6-1.2-0.9-2.3-0.9c-0.9,0-1.5,0.2-1.9,0.6s-0.6,0.8-0.6,1.3c0,0.6,0.2,1,0.7,1.2
			c0.3,0.2,1,0.4,2,0.6l1.6,0.4c0.8,0.2,1.3,0.4,1.7,0.7c0.7,0.5,1.1,1.3,1.1,2.3c0,1.3-0.5,2.2-1.4,2.7c-0.9,0.5-1.9,0.8-3.1,0.8
			c-1.4,0-2.5-0.4-3.3-1.1c-0.8-0.7-1.2-1.7-1.2-2.9H431.7z"/>
		<path fill="#236EB6" d="M441.4,278.3h1.6v4.7h5.9v-4.7h1.6v11.5h-1.6v-5.4H443v5.4h-1.6V278.3z"/>
	</g>
</g>
<g>
	<rect x="751.2" y="324.4" fill="#236EB6" fill-opacity="0.3" width="74" height="33"/>
	<g>
		<g>
			<path fill="#236EB6" d="M762.7,335.9h5c1.4,0,2.3,0.4,2.9,1.2c0.3,0.5,0.5,1,0.5,1.6c0,0.7-0.2,1.3-0.6,1.8
				c-0.2,0.2-0.5,0.5-0.9,0.7c0.6,0.2,1,0.5,1.3,0.8c0.5,0.5,0.8,1.2,0.8,2.1c0,0.7-0.2,1.4-0.7,2c-0.7,0.9-1.8,1.3-3.3,1.3h-4.9
				V335.9z M767.1,340.8c0.7,0,1.2-0.1,1.5-0.3c0.6-0.3,0.9-0.8,0.9-1.5c0-0.8-0.3-1.3-0.9-1.5c-0.3-0.1-0.9-0.2-1.5-0.2h-2.8v3.6
				H767.1z M767.6,346.1c1,0,1.6-0.3,2.1-0.8c0.3-0.3,0.4-0.8,0.4-1.3c0-0.8-0.4-1.4-1.1-1.7c-0.4-0.2-0.9-0.2-1.6-0.2h-3.1v4H767.6
				z"/>
			<path fill="#236EB6" d="M773.4,335.9h1.6V346h5.8v1.4h-7.3V335.9z"/>
			<path fill="#236EB6" d="M782.4,335.9h8.3v1.4H784v3.5h6.3v1.3H784v3.9h6.9v1.4h-8.4V335.9z"/>
			<path fill="#236EB6" d="M793,335.9h1.8l5.7,9.3v-9.3h1.5v11.5h-1.7l-5.8-9.3v9.3H793V335.9z"/>
			<path fill="#236EB6" d="M804.6,335.9h4.6c1.6,0,2.8,0.6,3.6,1.7c0.8,1,1.1,2.3,1.1,3.9c0,1.2-0.2,2.3-0.7,3.3
				c-0.8,1.7-2.2,2.6-4.1,2.6h-4.6V335.9z M808.9,346.1c0.5,0,0.9-0.1,1.3-0.2c0.6-0.2,1.1-0.6,1.5-1.2c0.3-0.5,0.5-1.1,0.6-1.8
				c0.1-0.4,0.1-0.8,0.1-1.2c0-1.4-0.3-2.5-0.8-3.3c-0.6-0.8-1.4-1.2-2.7-1.2h-2.7v8.8H808.9z"/>
		</g>
	</g>
</g>
<g>
	<rect x="1228.7" y="324.4" fill="#236EB6" fill-opacity="0.3" width="183" height="33"/>
	<g>
		<g>
			<path fill="#236EB6" d="M1244.3,335.9h8.3v1.4h-6.8v3.5h6.3v1.3h-6.3v3.9h6.9v1.4h-8.4V335.9z"/>
			<path fill="#236EB6" d="M1254.9,335.9h1.8l5.7,9.3v-9.3h1.5v11.5h-1.7l-5.8-9.3v9.3h-1.5V335.9z"/>
			<path fill="#236EB6" d="M1274.1,336.3c1.1,0.6,1.8,1.6,2.1,3.1h-1.5c-0.2-0.8-0.6-1.4-1.1-1.8c-0.6-0.4-1.3-0.6-2.2-0.6
				c-1,0-1.9,0.4-2.6,1.2c-0.7,0.8-1.1,2-1.1,3.6c0,1.4,0.3,2.5,0.9,3.3s1.5,1.3,2.9,1.3c1,0,1.9-0.3,2.5-0.9s1-1.6,1-2.9h-3.6v-1.3
				h5v6.1h-1l-0.4-1.5c-0.5,0.6-1,1-1.4,1.2c-0.7,0.4-1.5,0.6-2.6,0.6c-1.3,0-2.5-0.4-3.5-1.3c-1-1.1-1.6-2.6-1.6-4.5
				c0-1.9,0.5-3.5,1.5-4.6c1-1.1,2.2-1.6,3.8-1.6C1272.4,335.6,1273.3,335.8,1274.1,336.3z"/>
			<path fill="#236EB6" d="M1278.9,335.9h1.6V346h5.8v1.4h-7.3V335.9z"/>
			<path fill="#236EB6" d="M1288.1,335.9h1.6v11.5h-1.6V335.9z"/>
			<path fill="#236EB6" d="M1293.2,343.7c0,0.7,0.2,1.2,0.4,1.6c0.5,0.8,1.4,1.1,2.6,1.1c0.6,0,1.1-0.1,1.5-0.2
				c0.9-0.3,1.3-0.9,1.3-1.7c0-0.6-0.2-1.1-0.6-1.3c-0.4-0.3-1-0.5-1.8-0.7l-1.5-0.4c-1-0.2-1.7-0.5-2.1-0.8
				c-0.7-0.5-1.1-1.2-1.1-2.1c0-1,0.3-1.9,1-2.5s1.7-1,3-1c1.2,0,2.2,0.3,3,0.9c0.8,0.6,1.2,1.5,1.2,2.8h-1.5
				c-0.1-0.6-0.2-1.1-0.5-1.4c-0.5-0.6-1.2-0.9-2.3-0.9c-0.9,0-1.5,0.2-1.9,0.6c-0.4,0.4-0.6,0.8-0.6,1.3c0,0.6,0.2,1,0.7,1.2
				c0.3,0.2,1,0.4,2,0.6l1.6,0.4c0.8,0.2,1.3,0.4,1.7,0.7c0.7,0.5,1.1,1.3,1.1,2.3c0,1.3-0.5,2.2-1.4,2.7s-1.9,0.8-3.1,0.8
				c-1.4,0-2.5-0.4-3.3-1.1c-0.8-0.7-1.2-1.7-1.2-2.9H1293.2z"/>
			<path fill="#236EB6" d="M1302.9,335.9h1.6v4.7h5.9v-4.7h1.6v11.5h-1.6V342h-5.9v5.4h-1.6V335.9z"/>
			<path fill="#236EB6" d="M1319.2,335.9h1.6v11.5h-1.6V335.9z"/>
			<path fill="#236EB6" d="M1323.3,335.9h1.8l5.7,9.3v-9.3h1.5v11.5h-1.7l-5.8-9.3v9.3h-1.5V335.9z"/>
			<path fill="#236EB6" d="M1343.2,335.9v1.4h-3.9v10.1h-1.6v-10.1h-3.9v-1.4H1343.2z"/>
			<path fill="#236EB6" d="M1344.8,335.9h8.3v1.4h-6.8v3.5h6.3v1.3h-6.3v3.9h6.9v1.4h-8.4V335.9z"/>
			<path fill="#236EB6" d="M1355.5,335.9h5.2c0.9,0,1.6,0.1,2.1,0.4c1.1,0.5,1.6,1.4,1.6,2.7c0,0.7-0.1,1.2-0.4,1.7
				c-0.3,0.4-0.7,0.8-1.2,1.1c0.4,0.2,0.8,0.4,1,0.7s0.4,0.8,0.4,1.4l0.1,1.5c0,0.4,0.1,0.8,0.1,1c0.1,0.4,0.3,0.6,0.5,0.7v0.3h-1.9
				c-0.1-0.1-0.1-0.2-0.1-0.4s-0.1-0.5-0.1-0.9l-0.1-1.9c0-0.8-0.3-1.3-0.8-1.5c-0.3-0.1-0.7-0.2-1.4-0.2h-3.4v4.9h-1.6V335.9z
				 M1360.6,341.2c0.7,0,1.3-0.1,1.7-0.4c0.4-0.3,0.6-0.8,0.6-1.6c0-0.8-0.3-1.4-0.9-1.7c-0.3-0.2-0.7-0.2-1.2-0.2h-3.7v3.9H1360.6z
				"/>
			<path fill="#236EB6" d="M1366.9,335.9h1.8l5.7,9.3v-9.3h1.5v11.5h-1.7l-5.8-9.3v9.3h-1.5V335.9z"/>
			<path fill="#236EB6" d="M1378.6,335.9h8.3v1.4h-6.8v3.5h6.3v1.3h-6.3v3.9h6.9v1.4h-8.4V335.9z"/>
			<path fill="#236EB6" d="M1397.5,335.9v1.4h-3.9v10.1h-1.6v-10.1h-3.9v-1.4H1397.5z"/>
		</g>
	</g>
</g>
<rect x="371.1" y="379.8" fill="#236EB6" fill-opacity="0.3" width="91" height="33"/>
<g>
	<g>
		<path fill="#236EB6" d="M384.6,391.3h8v1.4h-6.4v3.5h5.6v1.4h-5.6v5.2h-1.6V391.3z"/>
		<path fill="#236EB6" d="M394.4,391.3h5.2c0.9,0,1.6,0.1,2.1,0.4c1.1,0.5,1.6,1.4,1.6,2.7c0,0.7-0.1,1.2-0.4,1.7
			c-0.3,0.4-0.7,0.8-1.2,1.1c0.4,0.2,0.8,0.4,1,0.7c0.2,0.3,0.4,0.8,0.4,1.4l0.1,1.5c0,0.4,0.1,0.8,0.1,1c0.1,0.4,0.3,0.6,0.5,0.7
			v0.3h-1.9c-0.1-0.1-0.1-0.2-0.1-0.4s-0.1-0.5-0.1-0.9l-0.1-1.9c0-0.8-0.3-1.3-0.8-1.5c-0.3-0.1-0.7-0.2-1.4-0.2H396v4.9h-1.6
			V391.3z M399.5,396.5c0.7,0,1.3-0.1,1.7-0.4c0.4-0.3,0.6-0.8,0.6-1.6c0-0.8-0.3-1.4-0.9-1.7c-0.3-0.2-0.7-0.2-1.2-0.2H396v3.9
			H399.5z"/>
		<path fill="#236EB6" d="M406,391.3h8.3v1.4h-6.8v3.5h6.3v1.3h-6.3v3.9h6.9v1.4H406V391.3z"/>
		<path fill="#236EB6" d="M416.5,391.3h1.8l5.7,9.3v-9.3h1.5v11.5h-1.7l-5.8-9.3v9.3h-1.5V391.3z"/>
		<path fill="#236EB6" d="M436.2,392.1c0.8,0.8,1.2,1.6,1.3,2.6H436c-0.2-0.7-0.5-1.3-1-1.8s-1.2-0.6-2.1-0.6c-1.1,0-2,0.4-2.7,1.2
			c-0.7,0.8-1,2-1,3.7c0,1.3,0.3,2.4,0.9,3.3c0.6,0.8,1.5,1.3,2.8,1.3c1.1,0,2-0.4,2.6-1.3c0.3-0.5,0.5-1.1,0.7-1.8h1.5
			c-0.1,1.2-0.6,2.2-1.3,3c-0.9,1-2.1,1.5-3.6,1.5c-1.3,0-2.4-0.4-3.3-1.2c-1.2-1.1-1.8-2.7-1.8-4.9c0-1.7,0.4-3.1,1.3-4.2
			c1-1.2,2.3-1.8,4-1.8C434.3,391,435.4,391.3,436.2,392.1z"/>
		<path fill="#236EB6" d="M439.6,391.3h1.6v4.7h5.9v-4.7h1.6v11.5h-1.6v-5.4h-5.9v5.4h-1.6V391.3z"/>
	</g>
</g>
<g>
	<path fill="#236EB6" d="M595.7,446.8H472.6c-0.3,0-0.5-0.2-0.5-0.5s0.2-0.5,0.5-0.5h122.6v-112H472.6c-0.3,0-0.5-0.2-0.5-0.5
		s0.2-0.5,0.5-0.5h123.1c0.3,0,0.5,0.2,0.5,0.5v113C596.2,446.6,596,446.8,595.7,446.8z"/>
	<g>
		<rect x="472.1" y="443" fill="#236EB6" width="1" height="6.5"/>
	</g>
	<g>
		<rect x="472.1" y="330" fill="#236EB6" width="1" height="6.5"/>
	</g>
</g>
<g>
	<path fill="#236EB6" d="M1031.9,530.8h-49.8c-0.3,0-0.5-0.2-0.5-0.5v-267c0-0.3,0.2-0.5,0.5-0.5h49.8c0.3,0,0.5,0.2,0.5,0.5
		s-0.2,0.5-0.5,0.5h-49.3v266h49.3c0.3,0,0.5,0.2,0.5,0.5S1032.2,530.8,1031.9,530.8z"/>
	<g>
		<path fill="#236EB6" d="M1025.1,258.5c-0.1,0.2-0.1,0.5,0.2,0.7l6.5,4.1l-6.5,4.1c-0.2,0.1-0.3,0.5-0.2,0.7s0.5,0.3,0.7,0.2
			l7.1-4.5c0.1-0.1,0.2-0.3,0.2-0.4s-0.1-0.3-0.2-0.4l-7.1-4.5c-0.1-0.1-0.2-0.1-0.3-0.1C1025.3,258.2,1025.1,258.3,1025.1,258.5z"
			/>
	</g>
	<g>
		<path fill="#236EB6" d="M1025.1,535.1c-0.1-0.2-0.1-0.5,0.2-0.7l6.5-4.1l-6.5-4.1c-0.2-0.1-0.3-0.5-0.2-0.7s0.5-0.3,0.7-0.2
			l7.1,4.5c0.1,0.1,0.2,0.3,0.2,0.4s-0.1,0.3-0.2,0.4l-7.1,4.5c-0.1,0.1-0.2,0.1-0.3,0.1C1025.3,535.3,1025.1,535.2,1025.1,535.1z"
			/>
	</g>
</g>
<g>
	<rect x="595.7" y="389.3" fill="#236EB6" width="117.2" height="1"/>
	<g>
		<path fill="#236EB6" d="M706.1,394.6c-0.1-0.2-0.1-0.5,0.2-0.7l6.5-4.1l-6.5-4.1c-0.2-0.1-0.3-0.5-0.2-0.7s0.5-0.3,0.7-0.2
			l7.1,4.5c0.1,0.1,0.2,0.3,0.2,0.4s-0.1,0.3-0.2,0.4l-7.1,4.5c-0.1,0.1-0.2,0.1-0.3,0.1C706.3,394.8,706.1,394.7,706.1,394.6z"/>
	</g>
</g>
<g>
	<rect x="861.4" y="389.3" fill="#236EB6" width="396.2" height="1"/>
	<g>
		<path fill="#236EB6" d="M1250.7,394.6c-0.1-0.2-0.1-0.5,0.2-0.7l6.5-4.1l-6.5-4.1c-0.2-0.1-0.3-0.5-0.2-0.7
			c0.1-0.2,0.5-0.3,0.7-0.2l7.1,4.5c0.1,0.1,0.2,0.3,0.2,0.4s-0.1,0.3-0.2,0.4l-7.1,4.5c-0.1,0.1-0.2,0.1-0.3,0.1
			C1251,394.8,1250.8,394.7,1250.7,394.6z"/>
	</g>
</g>
<g enable-background="new    ">
	<path fill="#236EB6" d="M1076.6,289.3c-0.4,1.7-1.1,3.1-2.1,4.2s-2.4,1.7-4.2,1.7c-1.4,0-2.5-0.5-3.1-1.5c-0.6-1-0.8-2.3-0.4-3.9
		c0.4-1.8,1.1-3.2,2.2-4.2s2.4-1.6,3.9-1.6c1.3,0,2.4,0.4,3.1,1.3C1076.8,286.2,1076.9,287.5,1076.6,289.3z M1074.7,289.3
		c0.2-1,0.2-1.8,0-2.4c-0.3-1-1-1.4-2.3-1.4c-1.1,0-1.9,0.4-2.6,1.2c-0.7,0.8-1.1,1.8-1.4,3c-0.2,1.1-0.2,2,0.1,2.8
		c0.3,0.7,1,1.1,2.1,1.1c1.2,0,2.1-0.4,2.7-1.3C1074.1,291.4,1074.5,290.4,1074.7,289.3z"/>
	<path fill="#236EB6" d="M1080.4,280.3h1.7l-1.1,5.2c0.5-0.5,1-0.9,1.6-1.1c0.6-0.3,1.2-0.4,1.8-0.4c1.3,0,2.3,0.4,2.9,1.3
		c0.6,0.9,0.7,2.2,0.4,4c-0.4,1.7-1,3-2.1,4.1s-2.3,1.6-3.7,1.6c-0.8,0-1.4-0.2-1.9-0.6c-0.3-0.2-0.5-0.6-0.8-1.1l-0.3,1.3h-1.6
		L1080.4,280.3z M1085.9,289.4c0.2-1.1,0.2-2-0.1-2.7c-0.3-0.7-0.9-1.1-1.9-1.1c-0.8,0-1.6,0.3-2.3,0.9c-0.7,0.6-1.2,1.6-1.5,2.9
		c-0.2,1-0.3,1.8-0.1,2.4c0.2,1.2,1,1.7,2.2,1.7c1,0,1.7-0.4,2.4-1.1C1085.2,291.6,1085.7,290.6,1085.9,289.4z"/>
	<path fill="#236EB6" d="M1090.4,291.5c-0.1,0.6,0,1,0.2,1.3c0.3,0.6,1,0.8,2.1,0.8c0.7,0,1.3-0.1,1.8-0.4s0.9-0.7,1-1.3
		c0.1-0.4,0-0.8-0.4-1c-0.2-0.1-0.7-0.3-1.4-0.5l-1.3-0.4c-0.8-0.2-1.5-0.5-1.8-0.7c-0.7-0.5-0.9-1.1-0.7-2c0.2-1,0.7-1.8,1.6-2.4
		c0.8-0.6,1.9-0.9,3.1-0.9c1.6,0,2.6,0.5,3.1,1.4c0.3,0.6,0.4,1.2,0.2,1.9h-1.7c0.1-0.4,0-0.8-0.2-1.1c-0.3-0.5-1-0.7-2-0.7
		c-0.7,0-1.2,0.1-1.6,0.4c-0.4,0.3-0.6,0.6-0.7,1c-0.1,0.5,0,0.8,0.4,1.1c0.2,0.2,0.6,0.3,1.1,0.4l1.1,0.3c1.2,0.3,2,0.6,2.4,0.9
		c0.6,0.4,0.8,1.2,0.6,2.1c-0.2,0.9-0.7,1.7-1.6,2.4s-2,1-3.4,1c-1.6,0-2.6-0.4-3.1-1.1s-0.7-1.6-0.5-2.6H1090.4z"/>
	<path fill="#236EB6" d="M1108.8,289.3c-0.4,1.7-1.1,3.1-2.1,4.2s-2.4,1.7-4.2,1.7c-1.4,0-2.5-0.5-3.1-1.5c-0.6-1-0.8-2.3-0.4-3.9
		c0.4-1.8,1.1-3.2,2.2-4.2s2.4-1.6,3.9-1.6c1.3,0,2.4,0.4,3.1,1.3C1109,286.2,1109.2,287.5,1108.8,289.3z M1107,289.3
		c0.2-1,0.2-1.8,0-2.4c-0.3-1-1-1.4-2.3-1.4c-1.1,0-1.9,0.4-2.6,1.2c-0.7,0.8-1.1,1.8-1.4,3c-0.2,1.1-0.2,2,0.1,2.8
		c0.3,0.7,1,1.1,2.1,1.1c1.2,0,2.1-0.4,2.7-1.3C1106.3,291.4,1106.7,290.4,1107,289.3z"/>
	<path fill="#236EB6" d="M1112.9,280.4h1.8l-3,14.3h-1.8L1112.9,280.4z"/>
	<path fill="#236EB6" d="M1124.2,285.9c0.2,0.5,0.3,1.1,0.3,1.8c0,0.5-0.1,1.2-0.3,2.3h-7.7c-0.2,1.1-0.1,1.9,0.2,2.6
		c0.3,0.6,1,1,2,1c0.9,0,1.7-0.3,2.4-0.9c0.4-0.4,0.7-0.8,0.9-1.2h1.7c-0.1,0.4-0.4,0.8-0.7,1.3c-0.4,0.5-0.7,0.9-1.1,1.2
		c-0.6,0.5-1.4,0.9-2.2,1.1c-0.4,0.1-0.9,0.2-1.5,0.2c-1.3,0-2.3-0.5-3-1.4s-0.9-2.3-0.5-4c0.4-1.7,1.1-3,2.2-4.1s2.4-1.6,3.9-1.6
		c0.7,0,1.4,0.2,2.1,0.5S1123.9,285.4,1124.2,285.9z M1122.6,288.7c0.1-0.8,0.1-1.4-0.1-1.8c-0.3-0.8-1-1.3-2.1-1.3
		c-0.8,0-1.5,0.3-2.2,0.9c-0.7,0.6-1.1,1.3-1.3,2.2H1122.6z"/>
	<path fill="#236EB6" d="M1128.5,281.4h1.8l-0.6,2.9h1.7l-0.3,1.4h-1.7l-1.5,6.8c-0.1,0.4,0,0.6,0.2,0.7c0.1,0.1,0.3,0.1,0.7,0.1
		c0.1,0,0.2,0,0.3,0s0.2,0,0.4,0l-0.3,1.4c-0.2,0.1-0.4,0.1-0.7,0.1s-0.5,0-0.7,0c-0.8,0-1.3-0.2-1.5-0.6s-0.2-1-0.1-1.6l1.5-6.9
		h-1.4l0.3-1.4h1.4L1128.5,281.4z"/>
	<path fill="#236EB6" d="M1140.9,285.9c0.2,0.5,0.3,1.1,0.3,1.8c0,0.5-0.1,1.2-0.3,2.3h-7.7c-0.2,1.1-0.1,1.9,0.2,2.6
		c0.3,0.6,1,1,2,1c0.9,0,1.7-0.3,2.4-0.9c0.4-0.4,0.7-0.8,0.9-1.2h1.7c-0.1,0.4-0.4,0.8-0.7,1.3c-0.4,0.5-0.7,0.9-1.1,1.2
		c-0.6,0.5-1.4,0.9-2.2,1.1c-0.4,0.1-0.9,0.2-1.5,0.2c-1.3,0-2.3-0.5-3-1.4s-0.9-2.3-0.5-4c0.4-1.7,1.1-3,2.2-4.1s2.4-1.6,3.9-1.6
		c0.7,0,1.4,0.2,2.1,0.5S1140.6,285.4,1140.9,285.9z M1139.3,288.7c0.1-0.8,0.1-1.4-0.1-1.8c-0.3-0.8-1-1.3-2.1-1.3
		c-0.8,0-1.5,0.3-2.2,0.9c-0.7,0.6-1.1,1.3-1.3,2.2H1139.3z"/>
</g>
<g enable-background="new    ">
	<path fill="#236EB6" d="M1083.9,554.6c-0.4,1.7-1.1,3.1-2.1,4.2s-2.4,1.7-4.2,1.7c-1.4,0-2.5-0.5-3.1-1.5c-0.6-1-0.8-2.3-0.4-3.9
		c0.4-1.8,1.1-3.2,2.2-4.2s2.4-1.6,3.9-1.6c1.3,0,2.4,0.4,3.1,1.3C1084.1,551.6,1084.3,552.9,1083.9,554.6z M1082.1,554.7
		c0.2-1,0.2-1.8,0-2.4c-0.3-1-1-1.4-2.3-1.4c-1.1,0-1.9,0.4-2.6,1.2c-0.7,0.8-1.1,1.8-1.4,3c-0.2,1.1-0.2,2,0.1,2.8
		c0.3,0.7,1,1.1,2.1,1.1c1.2,0,2.1-0.4,2.7-1.3C1081.4,556.7,1081.9,555.7,1082.1,554.7z"/>
	<path fill="#236EB6" d="M1087.8,545.7h1.7l-1.1,5.2c0.5-0.5,1-0.9,1.6-1.1c0.6-0.3,1.2-0.4,1.8-0.4c1.3,0,2.3,0.4,2.9,1.3
		c0.6,0.9,0.7,2.2,0.4,4c-0.4,1.7-1,3-2.1,4.1s-2.3,1.6-3.7,1.6c-0.8,0-1.4-0.2-1.9-0.6c-0.3-0.2-0.5-0.6-0.8-1.1l-0.3,1.3h-1.6
		L1087.8,545.7z M1093.3,554.7c0.2-1.1,0.2-2-0.1-2.7c-0.3-0.7-0.9-1.1-1.9-1.1c-0.8,0-1.6,0.3-2.3,0.9c-0.7,0.6-1.2,1.6-1.5,2.9
		c-0.2,1-0.3,1.8-0.1,2.4c0.2,1.2,1,1.7,2.2,1.7c1,0,1.7-0.4,2.4-1.1C1092.6,557,1093,556,1093.3,554.7z"/>
	<path fill="#236EB6" d="M1097.7,556.8c-0.1,0.6,0,1,0.2,1.3c0.3,0.6,1,0.8,2.1,0.8c0.7,0,1.3-0.1,1.8-0.4s0.9-0.7,1-1.3
		c0.1-0.4,0-0.8-0.4-1c-0.2-0.1-0.7-0.3-1.4-0.5l-1.3-0.4c-0.8-0.2-1.5-0.5-1.8-0.7c-0.7-0.5-0.9-1.1-0.7-2c0.2-1,0.7-1.8,1.6-2.4
		c0.8-0.6,1.9-0.9,3.1-0.9c1.6,0,2.6,0.5,3.1,1.4c0.3,0.6,0.4,1.2,0.2,1.9h-1.7c0.1-0.4,0-0.8-0.2-1.1c-0.3-0.5-1-0.7-2-0.7
		c-0.7,0-1.2,0.1-1.6,0.4c-0.4,0.3-0.6,0.6-0.7,1c-0.1,0.5,0,0.8,0.4,1.1c0.2,0.2,0.6,0.3,1.1,0.4l1.1,0.3c1.2,0.3,2,0.6,2.4,0.9
		c0.6,0.4,0.8,1.2,0.6,2.1c-0.2,0.9-0.7,1.7-1.6,2.4s-2,1-3.4,1c-1.6,0-2.6-0.4-3.1-1.1s-0.7-1.6-0.5-2.6H1097.7z"/>
	<path fill="#236EB6" d="M1116.2,554.6c-0.4,1.7-1.1,3.1-2.1,4.2s-2.4,1.7-4.2,1.7c-1.4,0-2.5-0.5-3.1-1.5c-0.6-1-0.8-2.3-0.4-3.9
		c0.4-1.8,1.1-3.2,2.2-4.2s2.4-1.6,3.9-1.6c1.3,0,2.4,0.4,3.1,1.3C1116.4,551.6,1116.5,552.9,1116.2,554.6z M1114.3,554.7
		c0.2-1,0.2-1.8,0-2.4c-0.3-1-1-1.4-2.3-1.4c-1.1,0-1.9,0.4-2.6,1.2c-0.7,0.8-1.1,1.8-1.4,3c-0.2,1.1-0.2,2,0.1,2.8
		c0.3,0.7,1,1.1,2.1,1.1c1.2,0,2.1-0.4,2.7-1.3C1113.7,556.7,1114.1,555.7,1114.3,554.7z"/>
	<path fill="#236EB6" d="M1120.2,545.7h1.8l-3,14.3h-1.8L1120.2,545.7z"/>
	<path fill="#236EB6" d="M1131.5,551.2c0.2,0.5,0.3,1.1,0.3,1.8c0,0.5-0.1,1.2-0.3,2.3h-7.7c-0.2,1.1-0.1,1.9,0.2,2.6
		c0.3,0.6,1,1,2,1c0.9,0,1.7-0.3,2.4-0.9c0.4-0.4,0.7-0.8,0.9-1.2h1.7c-0.1,0.4-0.4,0.8-0.7,1.3c-0.4,0.5-0.7,0.9-1.1,1.2
		c-0.6,0.5-1.4,0.9-2.2,1.1c-0.4,0.1-0.9,0.2-1.5,0.2c-1.3,0-2.3-0.5-3-1.4s-0.9-2.3-0.5-4c0.4-1.7,1.1-3,2.2-4.1s2.4-1.6,3.9-1.6
		c0.7,0,1.4,0.2,2.1,0.5S1131.3,550.7,1131.5,551.2z M1130,554c0.1-0.8,0.1-1.4-0.1-1.8c-0.3-0.8-1-1.3-2.1-1.3
		c-0.8,0-1.5,0.3-2.2,0.9c-0.7,0.6-1.1,1.3-1.3,2.2H1130z"/>
	<path fill="#236EB6" d="M1135.9,546.7h1.8l-0.6,2.9h1.7l-0.3,1.4h-1.7l-1.5,6.8c-0.1,0.4,0,0.6,0.2,0.7c0.1,0.1,0.3,0.1,0.7,0.1
		c0.1,0,0.2,0,0.3,0s0.2,0,0.4,0l-0.3,1.4c-0.2,0.1-0.4,0.1-0.7,0.1s-0.5,0-0.7,0c-0.8,0-1.3-0.2-1.5-0.6s-0.2-1-0.1-1.6l1.5-6.9
		h-1.4l0.3-1.4h1.4L1135.9,546.7z"/>
	<path fill="#236EB6" d="M1148.2,551.2c0.2,0.5,0.3,1.1,0.3,1.8c0,0.5-0.1,1.2-0.3,2.3h-7.7c-0.2,1.1-0.1,1.9,0.2,2.6
		c0.3,0.6,1,1,2,1c0.9,0,1.7-0.3,2.4-0.9c0.4-0.4,0.7-0.8,0.9-1.2h1.7c-0.1,0.4-0.4,0.8-0.7,1.3c-0.4,0.5-0.7,0.9-1.1,1.2
		c-0.6,0.5-1.4,0.9-2.2,1.1c-0.4,0.1-0.9,0.2-1.5,0.2c-1.3,0-2.3-0.5-3-1.4s-0.9-2.3-0.5-4c0.4-1.7,1.1-3,2.2-4.1s2.4-1.6,3.9-1.6
		c0.7,0,1.4,0.2,2.1,0.5S1148,550.7,1148.2,551.2z M1146.7,554c0.1-0.8,0.1-1.4-0.1-1.8c-0.3-0.8-1-1.3-2.1-1.3
		c-0.8,0-1.5,0.3-2.2,0.9c-0.7,0.6-1.1,1.3-1.3,2.2H1146.7z"/>
</g>
</svg>
